<svg
      xmlns="http://www.w3.org/2000/svg"
      width="1758.686"
      height="3710.428"
      version="1.1"
      viewBox="0 0 465.319 981.718"
    >
      <g transform="translate(-16.522 -18.084)">
        <g>
          <g transform="matrix(.48563 0 0 .48563 133.54 150.77)">
            <g transform="translate(0 177.588)">
              <path
                fill="currentColor"
                strokeWidth="0.159"
                d="M208.496 170.632c.179 4.337.279 8.862 1.18 12.728 1.74 7.343 4.84 13.773 9.6 19.908 2.627 3.388 9.505 10.17 15.477 15.265 11.972 10.211 16.36 14.87 19.82 21.046 1.66 2.961 2.831 6.09 3.587 9.58.452 2.087.857 4.963.837 5.942l-.016.763-10.24.104c-5.633.056-15.01.057-20.839 0-9.068-.088-10.612-.149-10.694-.42-.358-1.183 1.263-8.76 2.586-12.088l.492-1.238 14.26-.018c7.985-.01 14.997-.078 15.583-.152.674-.085 1.183-.253 1.384-.454.392-.391.243-.74-1.547-3.627l-1.247-2.014-.689-.002-.016-.022-10.68-.038c-10.322-.037-13.08-.111-13.08-.351 0-.245 1.162-1.704 3.1-3.895 1.963-2.22 7.046-7.192 7.797-7.628 1.025-1.33.16-2.526-1.398-3.672-2.538-2.302-4.509-3.983-4.668-3.983-.27 0-6.436 6.136-7.946 7.908-5.105 5.989-9.027 13.3-10.952 20.364a44.517 44.517 0 00-1.206 5.866 20.1 20.1 0 00-.095.722 54.303 54.303 0 00-.386 5.818c-.012.818-.01 1.617.007 2.4h59.236c.018-.826.019-1.665.004-2.517a54.417 54.417 0 00-.464-6.373c-.034-.38-.108-.87-.23-1.501a41.31 41.31 0 00-1.59-6.327c-1.903-6.094-4.785-11.345-9.323-17.123-2.053-2.614-10.807-11.376-15.568-15.582-6.786-5.995-12.364-11.64-15.407-15.594-2.847-3.698-5.465-9.028-6.727-13.692-.441-1.632-1.223-5.85-1.176-6.35.013-.142 7.376-.219 20.888-.219h20.868l-.14 1.17c-.461 3.84-2.451 10.734-3.36 11.638-1.038 1.034-1.285 1.048-19.493 1.094-5.849.015-10.65.091-10.668.17-2.073-.055 1.163 4.255 2.16 5.538l.587.738 12.12.007c4.97.003 8.393.034 10.306.091.167.051.232.111.232.182 0 .23-1.307 2.691-5.092 6.699-1.28 2.062-5.525 5.648-4.274 6.63.329.258 1.846 1.54 3.372 2.847l2.773 2.377 3.875-4.01c5.173-5.354 7.052-7.703 9.619-12.028 5.064-9.24 6.621-17.098 6.72-26.676zm0-88.794c.179 4.336.279 8.862 1.18 12.727 1.74 7.344 4.84 13.774 9.6 19.91 2.627 3.386 9.505 10.17 15.477 15.263 11.972 10.212 16.36 14.871 19.82 21.047 1.66 2.96 2.831 6.09 3.587 9.58.452 2.086.857 4.963.837 5.942l-.016.763-10.24.103c-5.633.057-15.01.058-20.839.001-9.068-.088-10.612-.149-10.694-.42-.358-1.183 1.263-8.76 2.586-12.088l.492-1.239 14.26-.017c7.985-.01 14.997-.078 15.583-.152.674-.086 1.183-.253 1.384-.454.392-.392.243-.74-1.547-3.627l-1.247-2.014-.689-.002-.016-.023-10.68-.037c-10.322-.037-13.08-.111-13.08-.352 0-.244 1.162-1.704 3.1-3.894 1.963-2.22 7.046-7.192 7.797-7.628 1.025-1.331.16-2.527-1.398-3.672-2.538-2.302-4.509-3.983-4.668-3.983-.27 0-6.436 6.135-7.946 7.908-5.105 5.989-9.027 13.3-10.952 20.363a44.517 44.517 0 00-1.206 5.867 20.1 20.1 0 00-.095.722 54.303 54.303 0 00-.386 5.818c-.012.818-.01 1.617.007 2.4h59.236c.018-.826.019-1.665.004-2.517a54.417 54.417 0 00-.464-6.373c-.034-.38-.108-.87-.23-1.501a41.31 41.31 0 00-1.59-6.327c-1.903-6.095-4.785-11.346-9.323-17.124-2.053-2.613-10.807-11.375-15.568-15.581-6.786-5.995-12.364-11.64-15.407-15.595-2.847-3.698-5.465-9.027-6.727-13.691-.441-1.632-1.223-5.85-1.176-6.35.013-.142 7.376-.22 20.888-.219h20.868l-.14 1.17c-.461 3.84-2.451 10.734-3.36 11.638-1.038 1.033-1.285 1.047-19.493 1.094-5.849.015-10.65.091-10.668.17-2.073-.056 1.163 4.254 2.16 5.537l.587.739 12.12.007c4.97.003 8.393.033 10.306.091.167.051.232.111.232.182 0 .23-1.307 2.69-5.092 6.698-1.28 2.062-5.525 5.649-4.274 6.63.329.258 1.846 1.54 3.372 2.848l2.773 2.377 3.875-4.01c5.173-5.354 7.052-7.704 9.619-12.028 5.064-9.24 6.621-17.098 6.72-26.677zm0-88.794c.179 4.336.279 8.862 1.18 12.727 1.74 7.344 4.84 13.774 9.6 19.91 2.627 3.386 9.505 10.17 15.477 15.263 11.972 10.212 16.36 14.871 19.82 21.046 1.66 2.962 2.831 6.09 3.587 9.58.452 2.087.857 4.964.837 5.943l-.016.763-10.24.103c-5.633.057-15.01.058-20.839.001-9.068-.088-10.612-.15-10.694-.421-.358-1.182 1.263-8.759 2.586-12.087l.492-1.239 14.26-.017c7.985-.01 14.997-.078 15.583-.152.674-.086 1.183-.253 1.384-.454.392-.392.243-.74-1.547-3.627l-1.247-2.014-.689-.002-.016-.023-10.68-.037c-10.322-.037-13.08-.111-13.08-.352 0-.244 1.162-1.704 3.1-3.894 1.963-2.22 7.046-7.193 7.797-7.628 1.025-1.331.16-2.527-1.398-3.672-2.538-2.302-4.509-3.983-4.668-3.984-.27 0-6.436 6.136-7.946 7.909-5.105 5.988-9.027 13.3-10.952 20.363a44.517 44.517 0 00-1.206 5.867 20.1 20.1 0 00-.095.722 54.303 54.303 0 00-.386 5.818c-.012.817-.01 1.616.007 2.4h59.236c.018-.826.019-1.665.004-2.517a54.417 54.417 0 00-.464-6.373c-.034-.38-.108-.87-.23-1.502a41.31 41.31 0 00-1.59-6.326c-1.903-6.095-4.785-11.346-9.323-17.124-2.053-2.613-10.807-11.375-15.568-15.581-6.786-5.995-12.364-11.64-15.407-15.595-2.847-3.698-5.465-9.028-6.727-13.691-.441-1.632-1.223-5.85-1.176-6.35.013-.142 7.376-.22 20.888-.219h20.868l-.14 1.17c-.461 3.839-2.451 10.734-3.36 11.637-1.038 1.034-1.285 1.048-19.493 1.095-5.849.015-10.65.091-10.668.169-2.073-.055 1.163 4.255 2.16 5.538l.587.739 12.12.007c4.97.003 8.393.033 10.306.091.167.051.232.11.232.182 0 .23-1.307 2.69-5.092 6.698-1.28 2.062-5.525 5.649-4.274 6.63.329.258 1.846 1.54 3.372 2.848l2.773 2.377 3.875-4.01c5.173-5.355 7.052-7.704 9.619-12.028 5.064-9.24 6.621-17.098 6.72-26.677zm0-88.794c.179 4.336.279 8.862 1.18 12.727 1.74 7.343 4.84 13.774 9.6 19.909 2.627 3.387 9.505 10.17 15.477 15.264 11.972 10.212 16.36 14.871 19.82 21.046 1.66 2.961 2.831 6.09 3.587 9.58.452 2.087.857 4.963.837 5.943l-.016.763-10.24.103c-5.633.057-15.01.058-20.839 0-9.068-.087-10.612-.148-10.694-.42-.358-1.183 1.263-8.76 2.586-12.087l.492-1.239 14.26-.017c7.985-.01 14.997-.078 15.583-.153.674-.085 1.183-.252 1.384-.453.392-.392.243-.74-1.547-3.627l-1.247-2.014-.689-.002-.016-.023-10.68-.038c-10.322-.036-13.08-.11-13.08-.351 0-.245 1.162-1.704 3.1-3.894 1.963-2.22 7.046-7.193 7.797-7.628 1.025-1.332.16-2.527-1.398-3.673-2.538-2.301-4.509-3.983-4.668-3.983-.27 0-6.436 6.136-7.946 7.908-5.105 5.99-9.027 13.3-10.952 20.364a44.517 44.517 0 00-1.206 5.867 20.1 20.1 0 00-.095.722 54.303 54.303 0 00-.386 5.817c-.012.818-.01 1.617.007 2.4h59.236c.018-.826.019-1.664.004-2.516a54.417 54.417 0 00-.464-6.373c-.034-.38-.108-.87-.23-1.502a41.31 41.31 0 00-1.59-6.327c-1.903-6.094-4.785-11.345-9.323-17.123-2.053-2.613-10.807-11.375-15.568-15.582-6.786-5.994-12.364-11.64-15.407-15.594-2.847-3.698-5.465-9.028-6.727-13.692-.441-1.631-1.223-5.85-1.176-6.35.013-.141 7.376-.219 20.888-.218h20.868l-.14 1.17c-.461 3.839-2.451 10.733-3.36 11.637-1.038 1.034-1.285 1.048-19.493 1.095-5.849.015-10.65.09-10.668.169-2.073-.055 1.163 4.255 2.16 5.538l.587.738 12.12.007c4.97.003 8.393.034 10.306.092.167.05.232.11.232.182 0 .23-1.307 2.69-5.092 6.698-1.28 2.062-5.525 5.648-4.274 6.63.329.258 1.846 1.54 3.372 2.848l2.773 2.377 3.875-4.01c5.173-5.355 7.052-7.704 9.619-12.028 5.064-9.24 6.621-17.099 6.72-26.677zm0-88.678c.179 4.337.279 8.862 1.18 12.728 1.74 7.343 4.84 13.774 9.6 19.909 2.627 3.387 9.505 10.17 15.477 15.264 11.972 10.211 16.36 14.87 19.82 21.046 1.66 2.961 2.831 6.09 3.587 9.58.452 2.087.857 4.963.837 5.943l-.016.762-10.24.104c-5.633.057-15.01.057-20.839 0-9.068-.087-10.612-.149-10.694-.42-.358-1.183 1.263-8.76 2.586-12.088l.492-1.238 14.26-.017c7.985-.01 14.997-.078 15.583-.153.674-.085 1.183-.253 1.384-.454.392-.391.243-.74-1.547-3.627l-1.247-2.014-.689-.002-.016-.022-10.68-.038c-10.322-.036-13.08-.11-13.08-.351 0-.245 1.162-1.704 3.1-3.895 1.963-2.22 7.046-7.192 7.797-7.628 1.025-1.33.16-2.526-1.398-3.672-2.538-2.301-4.509-3.983-4.668-3.983-.27 0-6.436 6.136-7.946 7.908-5.105 5.989-9.027 13.3-10.952 20.364a44.517 44.517 0 00-1.206 5.866 20.1 20.1 0 00-.095.722 54.303 54.303 0 00-.386 5.818c-.012.818-.01 1.617.007 2.4h59.236c.018-.826.019-1.664.004-2.517a54.417 54.417 0 00-.464-6.372c-.034-.38-.108-.87-.23-1.502a41.31 41.31 0 00-1.59-6.327c-1.903-6.094-4.785-11.345-9.323-17.123-2.053-2.614-10.807-11.376-15.568-15.582-6.786-5.995-12.364-11.64-15.407-15.594-2.847-3.698-5.465-9.028-6.727-13.692-.441-1.631-1.223-5.85-1.176-6.35.013-.142 7.376-.219 20.888-.219l20.868.001-.14 1.17c-.461 3.838-2.451 10.733-3.36 11.637-1.038 1.034-1.285 1.048-19.493 1.095-5.849.015-10.65.09-10.668.168-2.073-.054 1.163 4.256 2.16 5.539l.587.738 12.12.007c4.97.003 8.393.034 10.306.092.167.05.232.11.232.182 0 .23-1.307 2.69-5.092 6.698-1.28 2.062-5.525 5.648-4.274 6.63.329.258 1.846 1.54 3.372 2.847l2.773 2.377 3.875-4.01c5.173-5.354 7.052-7.703 9.619-12.027 5.064-9.241 6.621-17.099 6.72-26.677zm0-88.794c.179 4.336.279 8.862 1.18 12.727 1.74 7.344 4.84 13.774 9.6 19.91 2.627 3.387 9.505 10.17 15.477 15.264 11.972 10.211 16.36 14.87 19.82 21.046 1.66 2.96 2.831 6.09 3.587 9.58.452 2.087.857 4.963.837 5.942l-.016.763-10.24.103c-5.633.057-15.01.058-20.839.001-9.068-.088-10.612-.149-10.694-.42-.358-1.183 1.263-8.76 2.586-12.088l.492-1.239 14.26-.017c7.985-.01 14.997-.078 15.583-.152.674-.086 1.183-.253 1.384-.454.392-.391.243-.74-1.547-3.627l-1.247-2.014-.689-.002-.016-.022-10.68-.038c-10.322-.037-13.08-.111-13.08-.352 0-.244 1.162-1.703 3.1-3.894 1.963-2.22 7.046-7.192 7.797-7.628 1.025-1.331.16-2.527-1.398-3.672-2.538-2.302-4.509-3.983-4.668-3.983-.27 0-6.436 6.135-7.946 7.908-5.105 5.989-9.027 13.3-10.952 20.363a44.517 44.517 0 00-1.206 5.867 20.1 20.1 0 00-.095.722 54.303 54.303 0 00-.386 5.818c-.012.818-.01 1.617.007 2.4h59.236c.018-.826.019-1.665.004-2.517a54.417 54.417 0 00-.464-6.373c-.034-.38-.108-.87-.23-1.501a41.31 41.31 0 00-1.59-6.327c-1.903-6.095-4.785-11.345-9.323-17.124-2.053-2.613-10.807-11.375-15.568-15.581-6.786-5.995-12.364-11.64-15.407-15.594-2.847-3.698-5.465-9.028-6.727-13.692-.441-1.632-1.223-5.85-1.176-6.35.013-.142 7.376-.219 20.888-.219h20.868l-.14 1.17c-.461 3.84-2.451 10.734-3.36 11.638-1.038 1.034-1.285 1.048-19.493 1.094-5.849.015-10.65.091-10.668.17-2.073-.055 1.163 4.254 2.16 5.537l.587.739 12.12.007c4.97.003 8.393.034 10.306.091.167.051.232.111.232.182 0 .23-1.307 2.69-5.092 6.699-1.28 2.061-5.525 5.648-4.274 6.63.329.258 1.846 1.54 3.372 2.847l2.773 2.377 3.875-4.01c5.173-5.354 7.052-7.704 9.619-12.028 5.064-9.24 6.621-17.098 6.72-26.677zm0-88.794c.179 4.336.279 8.862 1.18 12.727 1.74 7.344 4.84 13.774 9.6 19.91 2.627 3.386 9.505 10.17 15.477 15.263 11.972 10.212 16.36 14.871 19.82 21.047 1.66 2.96 2.831 6.09 3.587 9.58.452 2.086.857 4.963.837 5.942l-.016.763-10.24.103c-5.633.057-15.01.058-20.839.001-9.068-.088-10.612-.149-10.694-.42-.358-1.183 1.263-8.76 2.586-12.088l.492-1.239 14.26-.017c7.985-.01 14.997-.078 15.583-.152.674-.086 1.183-.253 1.384-.454.392-.392.243-.74-1.547-3.627l-1.247-2.014-.689-.002-.016-.023-10.68-.037c-10.322-.037-13.08-.111-13.08-.352 0-.244 1.162-1.704 3.1-3.894 1.963-2.22 7.046-7.192 7.797-7.628 1.025-1.331.16-2.527-1.398-3.672-2.538-2.302-4.509-3.983-4.668-3.983-.27 0-6.436 6.135-7.946 7.908-5.105 5.989-9.027 13.3-10.952 20.363a44.517 44.517 0 00-1.206 5.867 20.1 20.1 0 00-.095.722 54.303 54.303 0 00-.386 5.818c-.012.818-.01 1.616.007 2.4h59.236c.018-.826.019-1.665.004-2.517a54.417 54.417 0 00-.464-6.373c-.034-.38-.108-.87-.23-1.501a41.31 41.31 0 00-1.59-6.327c-1.903-6.095-4.785-11.346-9.323-17.124-2.053-2.613-10.807-11.375-15.568-15.581-6.786-5.995-12.364-11.64-15.407-15.595-2.847-3.698-5.465-9.027-6.727-13.691-.441-1.632-1.223-5.85-1.176-6.35.013-.142 7.376-.22 20.888-.219h20.868l-.14 1.17c-.461 3.84-2.451 10.734-3.36 11.638-1.038 1.033-1.285 1.047-19.493 1.094-5.849.015-10.65.091-10.668.17-2.073-.056 1.163 4.254 2.16 5.537l.587.739 12.12.007c4.97.003 8.393.033 10.306.091.167.051.232.11.232.182 0 .23-1.307 2.69-5.092 6.698-1.28 2.062-5.525 5.649-4.274 6.63.329.258 1.846 1.54 3.372 2.848l2.773 2.377 3.875-4.01c5.173-5.354 7.052-7.704 9.619-12.028 5.064-9.24 6.621-17.098 6.72-26.677zm0-88.794c.179 4.336.279 8.862 1.18 12.727 1.74 7.343 4.84 13.774 9.6 19.909 2.627 3.387 9.505 10.17 15.477 15.264 11.972 10.212 16.36 14.871 19.82 21.046 1.66 2.961 2.831 6.09 3.587 9.58.452 2.087.857 4.964.837 5.943l-.016.763-10.24.103c-5.633.057-15.01.058-20.839.001-9.068-.088-10.612-.15-10.694-.421-.358-1.183 1.263-8.759 2.586-12.087l.492-1.239 14.26-.017c7.985-.01 14.997-.078 15.583-.152.674-.086 1.183-.253 1.384-.454.392-.392.243-.74-1.547-3.627l-1.247-2.014-.689-.002-.016-.023-10.68-.038c-10.322-.036-13.08-.11-13.08-.351 0-.244 1.162-1.704 3.1-3.894 1.963-2.22 7.046-7.193 7.797-7.628 1.025-1.331.16-2.527-1.398-3.672-2.538-2.302-4.509-3.983-4.668-3.984-.27 0-6.436 6.136-7.946 7.908-5.105 5.99-9.027 13.3-10.952 20.364a44.517 44.517 0 00-1.206 5.867 20.1 20.1 0 00-.095.722 54.303 54.303 0 00-.386 5.818c-.012.817-.01 1.616.007 2.4h59.236c.018-.826.019-1.665.004-2.517a54.417 54.417 0 00-.464-6.373c-.034-.38-.108-.87-.23-1.502a41.31 41.31 0 00-1.59-6.326c-1.903-6.095-4.785-11.346-9.323-17.124-2.053-2.613-10.807-11.375-15.568-15.581-6.786-5.995-12.364-11.64-15.407-15.595-2.847-3.698-5.465-9.028-6.727-13.692-.441-1.631-1.223-5.85-1.176-6.35.013-.141 7.376-.218 20.888-.218h20.868l-.14 1.17c-.461 3.839-2.451 10.733-3.36 11.637-1.038 1.034-1.285 1.048-19.493 1.095-5.849.015-10.65.09-10.668.169-2.073-.055 1.163 4.255 2.16 5.538l.587.738 12.12.007c4.97.003 8.393.034 10.306.092.167.051.232.11.232.182 0 .23-1.307 2.69-5.092 6.698-1.28 2.062-5.525 5.648-4.274 6.63.329.258 1.846 1.54 3.372 2.848l2.773 2.377 3.875-4.01c5.173-5.355 7.052-7.704 9.619-12.028 5.064-9.24 6.621-17.098 6.72-26.677z"
              ></path>
            </g>
          </g>
          <g transform="matrix(.48563 0 0 .33623 133.633 693.071)">
            <g fill="currentColor" strokeWidth="0.159" transform="translate(0 177.588)">
              <path d="M-128.64 656.667c-3.242 3.366-7.822 6.716-1.144 10.858 9.328 5.672 29.301 12.25 61.763 19.057 12.67 2.657 27.358 5.369 44.071 8.04 16.85 2.693 46.634 6.848 84.444 10.804 38.675 4.047 80.317 7.335 123.977 9.585 80.795 4.165 150.47 4.368 192.53 4.202 37.834-.149 86.275-.9 106.403-1.183 27.851-.393 48.089-.526 63.504-.087 8.978.255 18.273.823 18.883 1.205a.957.957 0 01.495.305 3933.153 3933.153 0 01-102.2 7.27c-34.121 1.981-61.459 3.086-61.459 3.086a3917.265 3917.265 0 01-165.58 3.514 3927.46 3927.46 0 01-168.093-3.582c-67.639-2.893-120.162-6.929-139.63-8.467-24.472-1.935-30.907-2.599-31.433-2.712-2.3-.493 4.96-.958 15.569-1.32 10.33-.353 24.858-.64 36.17-.603 3.043.027 8.634.019 8.634.019a3694.61 3694.61 0 00137.232 7.939c45.686 1.79 82.19 2.301 82.19 2.301a3648.974 3648.974 0 00162.38-.876c41.728-1.155 74.171-2.818 77-2.966 10.28-.538 18.02-1.036 20.962-1.29 6.812-.59 2.122-.404-25.696-.424-6.52-.007-19.909-.076-19.909-.076-3.304.146-10.376.428-10.376.428.076-.002-.252-.001-.252-.001a3539.68 3539.68 0 01-100.59 2.56c-33.573.378-60.457.166-60.457.166-73.652-.425-131.36-3.104-157.02-4.406-29.845-1.514-40.197-2.3-40.12-2.358.155-.119 18.712.323 48.66.629 18.077.184 39.2.373 66.157.268 14.981-.058 36.024-.417 51.005-.476 15.794-.49 1.809-1.272-19.613-2.36-36.037-2.07-63.235-4.296-65.5-4.394-1.917-.084-25.363-.21-51.673-.724-30.36-.593-51.446-1.343-67.263-1.852-78.981-2.544-146.738-5.829-185.788-6.168-10.64-.11-19.518-.01-26.684.328a87.471 87.471 0 00-2.48.13c-6.192.361-10.923.921-14.185 1.686-1.326.311-2.392.64-3.223.985 82.197 9.853 178.059 18.84 285.066 24.105a4017.563 4017.563 0 00314.456 3.169 4020.72 4020.72 0 00254.121-15.47c64.736-6 104.525-11.059 104.525-11.059-.864-.314-2.004-.605-3.415-.875-3.721-.707-9.006-1.183-16.08-1.429-1.054-.079-2.881-.124-5.64-.139-8.752-.145-19.565-.014-32.88.35-36.94.806-86.5 3.313-157.463 5.43-18.643.555-55.008 1.835-102.47 2.224-48.436.396-89.92-.287-126.583-1.375-69.455-2.06-125.84-6.52-166.77-10.861-15.25-1.618-28.238-3.21-38.605-4.615-36.123-4.9-64.897-11.306-77.206-16.246-4.187-1.68-10.188-5.678-9.17-5.976.29-.084 91.25 13.192 257.994 14.031 48.207.247 102.156-.834 160.998-4.215 53.628-3.082 96.502-7.354 96.502-7.354-.1.33-.702.996-.702.996-1.184 1.65-6.452 4.198-13.059 6.52-6.608 2.323-14.323 4.342-19.892 5.1-4.609.626-11.96 1.62-42.07 3.553-20.6 1.322-102.69 6.527-209.262 4.992-75.672-1.09-137.854-5.37-138.135-5.332-13.062-.86-10.639.016-2.198 1.457 8.668 1.48 20.727 3.037 27.594 3.88 2.6.313 7.434.886 7.434.886a2858.827 2858.827 0 00100.21 3.337c33.365.526 60.03.316 60.03.316a2944.164 2944.164 0 00136.246-3.894c2.241-.084 3.128-.093 3.168-.047.085.097-6.862 1.302-26.101 3.402-9.473 1.033-22.545 2.33-39.005 3.656-9.228.995-25.71 2.166-40.99 3.238-14.109.99-24.759 1.757-15.84 1.958 6.562.147 23.787.58 47.452.798 13.274.123 39.678.103 39.678.103 9.865-.806 20.965-1.779 32.735-2.904 10.783-1.03 19.291-1.921 19.291-1.921 31.255-3.23 55.244-6.367 71.71-8.77 17.06-2.49 30.987-4.901 44.432-7.557a864.85 864.85 0 005.001-1.004c58.211-12.434 66.353-20.792 55.662-27.714-240.774 33.102-481.584 31.84-722.43-3.784zm101.797-77.291c-.71 1.171-1.478 2.343-2.166 3.52-2.057 3.52-3.44 7.133-.162 10.949 8.412 9.55 31.888 20.51 74.66 31.211 12.056 3.017 33.741 7.66 61.185 12.281 28.064 4.726 58.696 8.864 90.711 12.034 32.234 3.192 61.218 5.227 85.076 6.618 18.699 1.09 35.836 1.872 50.295 2.469 38.447 1.586 63.814 2.33 86.993 3.454 20.933 1.014 36.702 2.268 48.569 4.172 6.987 1.12 14.37 2.857 14.96 3.594.289.192.474.587.474.587-22.964 2.22-48.799 4.39-76.986 6.232-25.698 1.68-46.28 2.592-46.28 2.592a2459.439 2459.439 0 01-124.617 2.656 2462.007 2462.007 0 01-126.398-3.75c-50.916-2.823-90.196-6.613-104.89-8.079-18.37-1.833-23.188-2.48-23.563-2.634-1.631-.671 4.136-1.896 12.427-3.139 8.11-1.216 19.264-2.542 27.933-3.129 2.32-.13 6.588-.459 6.588-.459a2329.315 2329.315 0 00102.325 7.332c34.08 1.688 61.325 2.226 61.325 2.226 46.828 1.083 87.826.598 121.244-.397 31.336-.932 55.252-2.324 57.528-2.468 7.684-.487 13.444-.978 15.633-1.282 4.73-.658 1.849-.684-19.43-2.01-4.902-.311-14.953-.995-14.953-.995-2.46.124-7.728.35-7.728.35a2.67 2.67 0 00-.189-.012 2238.677 2238.677 0 01-74.892 2.015c-24.986.254-44.987.007-44.987.007-54.845-.537-97.635-3.014-116.751-4.23-22.176-1.41-29.858-2.15-29.79-2.252.14-.206 14.073-.388 36.443-1.006 5.215-.144 11.003-.292 18.573-.518a2690.063 2690.063 0 0049.482-1.92c9.418-.45 16.51-.826 19.081-.898 11.457-1.003 1.65-2.23-14.363-3.715-26.501-2.866-46.4-5.551-48.067-5.638-1.41-.073-18.755.49-38.283.793-24.078.374-36.701.27-50.04.329l-12.139.05c35.23-.14-73.13.308-37.9.167-37.316.206-69.399.606-90.778 2.182-8.285.585-15.307 1.366-21.07 2.385-.834.136-1.487.259-2.002.37-5.013.985-8.964 2.165-11.835 3.555-1.168.566-2.14 1.14-2.93 1.725 61.803 9.14 133.922 17.545 214.498 22.634a2533.753 2533.753 0 00236.973 3.875 2550.037 2550.037 0 00191.782-13.108c48.892-5.194 78.955-9.62 78.955-9.62-.814-.612-1.837-1.21-3.065-1.796-3.235-1.537-7.616-2.828-13.3-3.894-.861-.229-2.324-.473-4.509-.754-6.95-1.048-15.443-1.825-25.728-2.406-22.166-1.506-46.916-2-81.92-2.503-11.299-.163-24.339-.34-37.498-.565l-.597-.01c-15.483-.25-40.513-.3-76.487-1.561-35.846-1.258-65.663-3.16-92.569-5.198-69.985-5.3-122.105-14.21-149.57-20.335-25.955-5.79-46.526-13.49-54.92-19.671-2.883-2.123-6.84-7.32-6.06-7.797.221-.136 65.839 10.35 186.45 10.87 34.864.156 73.917-.758 116.527-3.513 38.838-2.51 69.914-5.964 69.914-5.964-.054.464-.455 1.384-.455 1.384-.766 2.288-4.466 5.67-9.153 8.708-4.68 3.034-10.224 5.642-14.25 6.485-3.825.8-8.18 1.675-30.596 3.362-15.25 1.148-74.524 5.435-152.262 4.216-55.019-.863-100.182-4.303-100.392-4.235-9.597-.72-7.69.516-1.756 2.27 6.073 1.795 15.037 3.737 19.858 4.736 1.877.38 5.368 1.081 5.368 1.081a1836.391 1836.391 0 0073.026 2.759c24.323.435 43.772.262 43.772.262 46.102-.265 82.742-2.216 99.425-3.155 1.638-.045 2.287-.022 2.319.05.1.233-11.025 3.83-47.435 9.085-6.532 1.336-18.997 2.958-29.99 4.47-10.41 1.432-18.083 2.608-11.613 3.017 5.148.325 17.125 1.162 34.878 2.059 9.772.495 29.25 1.246 29.25 1.246 7.206-1.016 15.409-2.24 23.995-3.605 7.897-1.256 14.118-2.318 14.118-2.318 24.274-4.091 42.205-7.823 54.544-10.733 12.798-3.018 23.027-5.946 33.536-9.416 36.868-12.958 44.984-23.185 40.85-31.94-.563-1.191-1.348-2.376-2.324-3.564-174.421 26.56-348.39 25.815-521.905-2.232zm77.9-101.146c-2.065 5.487-4.897 11.23-1.899 16.784 4.188 7.55 13.654 15.273 29.623 23.037 6.501 3.161 14.115 6.342 22.894 9.493 2.638.946 6 2.065 9.964 3.3 23.14 7.201 58.278 15.823 97.887 22.17 41.776 6.695 79.849 10.655 101.804 12.999 26.272 2.804 40.256 4.354 57.365 6.943 15.053 2.279 26.554 4.83 35.177 8.09 5.098 1.926 10.534 4.76 10.998 5.831.22.286.372.85.372.85a1643.701 1643.701 0 01-55.638 5.054c-18.566 1.37-33.432 2.124-33.432 2.124a1607.077 1607.077 0 01-89.967 2.274 1604.827 1604.827 0 01-91.164-2.83c-36.792-2.195-64.91-5.153-75.576-6.326-13.228-1.455-16.69-2-16.948-2.186-1.127-.814 3.207-2.842 9.353-5.025 6.04-2.146 14.195-4.569 20.546-5.848 1.69-.305 4.806-.981 4.806-.981a1544.46 1544.46 0 0073.447 5.487c24.471 1.243 44.044 1.607 44.044 1.607 33.634.75 63.116.29 87.136-.555 22.661-.797 39.602-1.929 41.37-2.068 5.528-.435 9.667-.912 11.242-1.256 3.072-.67 1.535-.903-13.985-3.397-3.524-.573-10.742-1.782-10.742-1.782-1.767.105-5.549.284-5.549.284.041 0-.135-.02-.135-.02a1495.886 1495.886 0 01-53.754 1.691c-17.93.243-32.276.09-32.276.09-83.075-.648-105.157-4.57-105.047-4.847.111-.282 10.172-1.188 26.282-2.829 12.38-1.26 18.392-1.762 35.448-3.637 12.875-1.415 24.26-2.824 27.173-3.034 8.145-1.48 1.329-3-10.168-4.669-18.875-3.278-33.022-6.099-34.212-6.159-1.007-.05-13.442 1.214-27.459 2.395-14.017 1.18-29.677 2.23-35.954 2.729-41.728 3.315-80.159 7.084-102.17 12.129-6.108 1.367-11.337 2.905-15.675 4.657a23.03 23.03 0 00-1.51.63c-3.488 1.522-6.346 3.194-8.561 5.032-.19.158-.375.317-.556.477a20.073 20.073 0 00-2.374 2.472c44.525 7.197 96.515 13.8 154.66 17.757a1663.156 1663.156 0 00171.161 2.825 1685.223 1685.223 0 00138.746-10.622c35.401-4.18 57.18-7.729 57.18-7.729-.646-.894-1.443-1.782-2.388-2.668a23.767 23.767 0 00-.406-.37c-2.436-2.172-5.601-4.112-9.592-5.857-.642-.369-1.725-.803-3.335-1.336-5.126-1.904-11.36-3.548-18.847-5.026-21.82-4.756-47.019-7.239-86.187-10.904-8.617-.806-30.8-2.35-54.608-4.72-26.174-2.606-46.91-5.311-66.605-8.03a856.157 856.157 0 01-38.67-6.22c-19.392-3.589-35.817-7.38-48.791-10.846-7.4-1.976-13.698-3.852-18.764-5.524-18.34-6.055-32.909-14.274-38.745-21.079-2.032-2.368-4.777-8.189-4.188-8.816.16-.17 46.839 7.002 132.692 6.88 24.811-.029 52.624-.84 82.957-2.98 27.654-1.951 49.785-4.543 49.785-4.543-.045.54-.342 1.6-.342 1.6-.573 2.645-3.248 6.477-6.617 9.897-3.362 3.413-7.343 6.34-10.213 7.201-2.926.879-5.647 1.636-21.813 3.027-11.112.957-52.855 4.294-108.457 3.713-39.178-.409-71.326-2.687-71.477-2.597-6.868-.5-5.463.942-1.307 2.828 4.232 1.92 10.696 4.02 14.053 5.068l3.803 1.152c15.556.844 33.022 1.5 52.014 1.751 17.327.23 31.185.034 31.185.034 32.79-.356 59.024-1.893 70.856-2.605 1.167-.011 1.63.034 1.651.124.044.188-3.348 1.84-12.709 4.704-5.054 1.546-12.078 3.499-21.212 5.638-4.424 1.502-13.162 3.405-20.797 5.195-7.813 1.832-13.717 3.398-9 3.955 4.307.508 11.554 1.47 24.851 2.918 6.967.76 20.863 2.09 20.863 2.09 9.306-2.102 27.263-6.627 27.263-6.627 10.89-2.806 19.842-5.355 26.933-7.534 14.853-4.564 24.534-8.392 34.05-12.945.65-.31 1.303-.627 1.962-.95 29.767-15.649 33.4-27.732 27.722-39.595-124.224 19.615-248.056 19.81-371.497.586zm54.802-115.31c-1.38 5.904-3.307 12.142-1.074 17.848 4.365 10.857 16.19 21.649 37.909 32.083 13.418 6.446 43.628 17.096 77.048 24.853 14.928 3.465 28.517 6.266 39.903 8.518 40.911 8.093 52.72 9.625 73.272 15.552 10.655 3.073 18.81 6.444 24.874 10.525 3.593 2.418 7.41 5.913 7.726 7.175.151.34.252 1 .252 1a1169.036 1169.036 0 01-39.618 3.855 1163.607 1163.607 0 01-23.803 1.665 1133.104 1133.104 0 01-64.048 2.017c-24.201.08-46.056-.62-64.888-1.643-26.27-1.427-46.106-3.418-53.782-4.239-9.412-1.007-11.874-1.421-12.057-1.622-.793-.876 2.318-3.455 6.719-6.287 4.341-2.795 10.136-5.962 14.687-7.735 1.207-.43 3.432-1.35 3.432-1.35 15.64 1.425 33.2 2.684 52.302 3.517 17.426.76 31.366.924 31.366.924 46.875.73 88.096-2.17 91.524-2.497 3.94-.375 6.888-.815 8.015-1.169 2.195-.689 1.108-1.029-9.898-4.21-2.5-.73-7.619-2.249-7.619-2.249-1.259.087-3.953.223-3.953.223.03.002-.096-.025-.096-.025a1079.628 1079.628 0 01-38.299 1.418c-12.774.247-22.995.202-22.995.202-59.188-.09-74.918-2.766-74.839-3.085.081-.324 7.257-1.758 18.753-4.112 8.901-1.823 28.048-5.597 38.25-7.67 3.153-.64 5.466-1.093 6.452-1.222 5.79-1.756 1.004-3.398-7.224-5.09-13.452-3.37-23.547-6.115-24.397-6.15-.719-.03-9.601 1.696-19.607 3.487-10.005 1.79-21.177 3.613-25.654 4.446-1.196.222-2.386.446-3.569.671-28.384 5.403-54.093 11.779-69.267 18.704-4.356 1.951-8.091 4.049-11.194 6.33-.448.314-.8.584-1.08.818-2.712 2.134-4.898 4.423-6.548 6.887a25.078 25.078 0 00-1.721 2.98 1197.528 1197.528 0 00110.046 11.986 1184.313 1184.313 0 00121.828 1.296c39.33-1.604 72.97-4.936 98.79-8.132 25.21-3.121 40.72-5.736 40.72-5.736a23.315 23.315 0 00-1.66-3.188c-1.734-2.794-4.044-5.331-7.008-7.665-.45-.454-1.213-1.01-2.347-1.706-3.606-2.447-8.006-4.658-13.294-6.73-15.12-6.42-33.532-10.713-61.05-16.1a170.01 170.01 0 00-2.998-.552c-8.005-1.414-23.357-3.868-39.279-6.83-17.7-3.29-30.67-6.07-43.987-8.916-35.481-7.579-62.05-16.675-75.942-22.967-13.136-5.95-23.665-14.171-27.905-21.15-1.481-2.438-3.51-8.505-3.098-9.193.113-.188 33.692 4.387 95.424 3.826a910.118 910.118 0 0059.644-2.483c19.88-1.48 35.788-3.365 35.788-3.365-.042.57-.275 1.686-.275 1.686-.93 5.63-8.07 15.951-12.352 17.684-2.191.886-3.984 1.54-15.66 2.653-8.196.781-37.673 3.292-77.77 3.205-28.095-.062-51.15-1.405-51.258-1.303-4.939-.32-3.897 1.202-.925 3.096 3.015 1.922 7.7 4.03 10.082 5.06l2.726 1.147c11.133.498 23.662.856 37.256.928 12.41.066 22.336-.141 22.336-.141 23.418-.413 42.341-1.589 50.747-2.107.835.013 1.165.072 1.179.17.045.317-5.705 4.328-24.381 10.707-3.249 1.63-9.863 3.735-15.39 5.7-5.368 1.908-9.257 3.553-5.994 4.155 1.71.316 9.617 1.883 17.722 3.356 4.965.904 14.866 2.567 14.866 2.567 6.667-2.182 19.543-6.775 19.543-6.775 24.437-8.842 35.133-14.421 45.276-21.226 21.518-15.58 24.477-27.929 20.669-40.778-89.341 14.01-178.449 14.836-267.323 2.478zm37.248-121.937c-.883 6.084-2.156 12.533-.4 18.241 3.435 10.878 12.27 21.244 28.26 31.173 9.694 6.02 32.188 16.208 56.303 23.86 53.258 16.9 59.528 15.861 81.848 26.091 6.385 2.926 11.504 6.065 15.52 9.642a38.43 38.43 0 012.237 2.158c2.314 2.424 4.748 5.812 5.313 7.402.056.158.094.3.113.422.102.363.162 1.063.162 1.063a884.643 884.643 0 01-28.533 2.874c-9.521.804-17.144 1.282-17.144 1.282a849.87 849.87 0 01-46.137 1.75 847.981 847.981 0 01-46.752-.77c-40.367-1.794-47.187-3.41-47.454-3.819-.15-.228-.115-.589.073-1.052.81-1.995 4.555-6.01 8.562-9.548 2.222-1.961 4.57-3.812 6.621-5.098.866-.5 2.463-1.553 2.463-1.553a850.011 850.011 0 0037.812 2.078c12.597.412 22.671.44 22.671.44 33.88.22 63.66-2.015 66.139-2.293 2.847-.32 4.98-.719 5.798-1.065 1.592-.676.818-1.076-7.1-4.61-1.797-.81-5.483-2.484-5.483-2.484-.911.07-2.86.172-2.86.172.02.002-.07-.027-.07-.027-8.25.49-17.596.912-27.714 1.171-9.245.237-16.643.261-16.643.261-42.84.264-54.238-1.494-54.183-1.83.056-.342 5.233-2.082 13.546-4.83 3.014-.998 12.87-4.06 18.317-5.774 6.611-2.08 12.618-3.996 14.072-4.29 4.188-1.88.743-3.556-5.254-5.218-9.782-3.339-17.143-5.965-17.762-5.984-.523-.016-6.974 1.96-14.229 4.098-7.254 2.137-15.342 4.414-18.58 5.442-21.629 6.868-41.085 15.192-52.35 23.666a52.937 52.937 0 00-4.236 3.47 41.85 41.85 0 00-3.699 3.821c-.316.357-.564.661-.76.923a33.982 33.982 0 00-3.116 4.641 31.119 31.119 0 00-1.458 2.99 33.284 33.284 0 00-1.18 3.24 910.345 910.345 0 0079.25 7.527 903.359 903.359 0 0087.706.198 917.861 917.861 0 0071.097-6.077c18.14-2.261 29.301-4.124 29.301-4.124a31.902 31.902 0 00-2.388-6.287 31.849 31.849 0 00-3.568-5.525c-.312-.497-.846-1.116-1.644-1.9a38.565 38.565 0 00-1.965-1.973c-2.129-1.992-4.598-3.876-7.433-5.692-10.638-7.333-24.013-12.718-43.75-19.085-4.41-1.422-15.791-4.393-28.062-7.895-14.84-4.236-22.88-6.794-34.451-10.32-25.836-7.871-45.3-16.615-55.535-22.722-9.657-5.762-17.497-13.83-20.709-20.798-1.124-2.438-2.709-8.562-2.419-9.276.08-.197 24.821 2.646 70.263 1.902a729.562 729.562 0 0043.894-2.025c14.628-1.115 26.33-2.48 26.33-2.48-.04.58-.227 1.709-.227 1.709-.76 5.684-6.141 16.033-9.284 17.682-1.652.867-2.895 1.44-11.49 2.33-6.211.644-27.4 2.518-57 2.708-20.596.132-37.504-.6-37.582-.492-3.63-.2-2.837 1.34-.648 3.203 2.216 1.886 5.687 3.957 7.426 4.958.7.388 2.003 1.119 2.003 1.119 8.14.273 17.33.441 27.267.41a750.64 750.64 0 0016.344-.228c17.05-.414 31.056-1.307 37.12-1.676.61.028.85.096.86.197.03.326-4.217 4.272-17.884 10.658-2.358 1.632-7.239 3.775-11.255 5.769-3.925 1.948-6.756 3.644-4.383 4.274 1.246.33 7.002 1.974 12.894 3.566 3.61.977 10.8 2.82 10.8 2.82 4.866-2.17 14.278-6.67 14.278-6.67 18.031-8.702 25.595-13.79 33.248-20.512 15.928-15.14 18.395-27.383 15.856-40.658-65.773 9.962-131.438 11.049-196.993 3.26zm25.054-125.267c-.542 6.16-1.366 12.691.08 18.362a45.6 45.6 0 001.136 3.703 46.925 46.925 0 003.652 7.876c3.757 6.485 9.334 12.731 17.038 18.773 7.248 5.685 24.468 15.532 42.378 23.066 37.633 15.83 46.418 17.688 60.765 27.287 5.612 3.754 9.868 7.807 12.965 12.509 1.84 2.793 3.753 6.757 3.884 8.136.07.373.105 1.088.105 1.088a703.541 703.541 0 01-21.03 2.136c-7.02.608-12.639.982-12.639.982A674.007 674.007 0 01208 240.848c-29.778-1.008-34.816-2.084-35.02-2.49-.844-1.682 6.23-12.144 11.02-16.55.632-.538 1.8-1.664 1.8-1.664 8.366.52 17.8.946 28.016 1.163 9.333.198 16.796.153 16.796.153 25.096-.062 47.148-1.776 48.983-2.014 2.11-.274 3.691-.636 4.3-.972 1.183-.655.62-1.09-5.218-4.828a7492.04 7492.04 0 01-4.046-2.62c-.676.057-2.122.132-2.122.132.015.002-.051-.029-.051-.029a679.109 679.109 0 01-32.92 1.212c-31.8.42-40.269-.725-40.232-1.069.038-.349 3.857-2.262 10.01-5.228 5.325-2.566 22.88-10.342 24.047-10.673 3.11-1.937.55-3.623-3.94-5.258-7.315-3.3-12.84-5.834-13.301-5.843-.391-.008-5.197 2.104-10.589 4.438-4.938 2.137-11.825 5.082-13.785 6.016-16.043 7.642-30.24 16.955-38.392 26.145-2.239 2.483-4.138 5.077-5.69 7.81-.225.379-.401.701-.54.977a39.372 39.372 0 00-3.194 7.998 44.45 44.45 0 00-.794 3.359 729.175 729.175 0 00123.023 4.204c41.04-2.067 73.909-7.463 73.909-7.463a41.776 41.776 0 00-.745-3.533c-.8-3.117-1.914-6.004-3.383-8.723-.22-.519-.6-1.171-1.17-2.002-1.806-2.889-4.047-5.588-6.77-8.189-7.664-7.854-17.54-13.933-32.087-20.917-2.956-1.42-12.016-5.01-20.823-8.634-9.13-3.757-18.94-7.974-25.718-10.789-19.352-8.037-34.057-16.497-41.838-22.445a52.674 52.674 0 01-5.64-5.007c-2.417-2.47-4.568-5.137-6.342-7.83-1.689-2.567-3.026-5.146-3.92-7.583-.885-2.42-2.18-8.536-1.973-9.262.058-.2 18.848 1.527 53.336.744a619.664 619.664 0 0033.307-1.636c11.098-.843 19.974-1.838 19.974-1.838-.037.582-.191 1.71-.191 1.71-.518 4.597-3.328 12.132-5.69 15.763-.554.85-1.073 1.469-1.514 1.761-1.273.842-2.178 1.358-8.685 2.078-4.877.54-20.496 1.935-43.035 2.26-15.553.223-28.324-.128-28.382-.017-3.173-.145-1.844 1.941.39 4.113 1.642 1.596 3.7 3.17 4.803 3.989.53.38 1.52 1.094 1.52 1.094a630.68 630.68 0 0032.857-.145c12.722-.378 23.51-1.057 27.954-1.312.46.04.64.113.646.215.02.33-3.214 4.19-13.502 10.499-3.446 3.148-15.302 8.755-11.757 10.045.934.34 5.246 2.028 9.65 3.694 2.699 1.024 8.066 2.98 8.066 2.98 3.65-2.13 10.726-6.509 10.726-6.509 13.665-8.503 19.217-13.186 25.146-19.792 2.826-3.414 5.103-6.686 6.913-9.846 1.577-2.756 2.806-5.438 3.736-8.077 2.624-7.438 2.908-14.593 1.933-22.318-49.945 7.131-99.845 8.272-149.701 3.421zM184.94-10.89c-.302 6.194-.814 12.754.426 18.384 2.419 10.734 7.93 20.477 17.486 29.723 5.623 5.442 19.23 15.073 32.994 22.504 28.307 15.285 36.45 18.656 46.632 27.979 4.26 3.9 7.467 8.088 9.774 12.896 1.372 2.86 2.781 6.892 2.865 8.284.05.377.067 1.095.067 1.095-4.738.543-10.175 1.1-15.996 1.605-5.338.464-9.613.758-9.613.758a558.828 558.828 0 01-52.118 1.246c-22.664-.538-26.505-1.263-26.666-1.664-.673-1.677 4.555-12.398 8.159-16.96.475-.558 1.352-1.72 1.352-1.72 6.393.3 13.627.528 21.433.608 7.14.074 12.847-.005 12.847-.005 19.194-.203 36.054-1.532 37.458-1.74 1.614-.238 2.824-.572 3.291-.897.91-.635.487-1.09-3.962-4.942l-3.086-2.694c-.518.047-1.627.101-1.627.101.012.002-.039-.03-.039-.03a584.678 584.678 0 01-25.232 1.008c-24.376.465-30.875-.292-30.85-.638.025-.351 2.93-2.355 7.628-5.43 4.287-2.806 17.284-10.53 18.423-10.958 2.383-1.955.415-3.643-3.059-5.259-5.657-3.268-9.944-5.737-10.301-5.74-.302-.003-3.998 2.177-8.133 4.614-3.911 2.306-8.935 5.263-10.553 6.328-12.27 8.07-22.945 17.924-28.995 27.504a47.852 47.852 0 00-4.178 8.084c-.164.39-.29.721-.39 1.004a48.825 48.825 0 00-2.261 8.176 57.986 57.986 0 00-.532 3.41 623.106 623.106 0 0093.516 2.077c31.181-1.65 56.138-5.497 56.138-5.497a54.696 54.696 0 00-.505-3.575c-.553-3.16-1.35-6.103-2.421-8.89-.158-.53-.437-1.2-.857-2.057-1.325-2.97-2.988-5.768-5.025-8.48-5.706-8.147-13.213-14.651-24.307-22.011-2.341-1.553-9.112-5.27-15.972-9.093-7.024-3.914-14.601-8.23-19.85-11.08-14.987-8.137-26.489-16.41-32.61-22.244-5.756-5.485-10.585-13.284-12.661-20.136-.727-2.398-1.834-8.5-1.682-9.23.042-.202 14.812.789 41.912.036a568.36 568.36 0 0026.169-1.312c8.718-.637 15.69-1.362 15.69-1.362-.035.582-.168 1.707-.168 1.707-.56 5.65-3.943 15.853-5.802 17.363-1.011.821-1.7 1.297-6.794 1.89-3.979.462-15.837 1.502-33.611 1.881-12.149.259-22.125.143-22.17.255-4.351-.16 2.116 6.181 4.125 8.049a400.5 400.5 0 011.193 1.077c4.76.055 10.192.049 16.005-.055 5.33-.095 9.591-.252 9.591-.252 9.683-.327 18.54-.855 21.774-1.02.357.05.497.125.501.228.014.33-2.534 4.119-10.538 10.335-2.684 3.12-11.877 8.675-9.13 9.986.723.345 4.063 2.063 7.467 3.777 2.086 1.053 6.23 3.083 6.23 3.083 2.837-2.094 8.324-6.356 8.324-6.356 10.689-8.32 14.927-12.694 19.663-19.196 9.626-14.34 11.496-26.24 10.373-39.816-39.286 5.09-78.557 6.185-117.813 3.284zm10.958-127.275c-.135 6.209-.433 12.77.68 18.367a63.5 63.5 0 001.305 5.29c2.506 8.566 6.816 16.446 13.34 23.973 4.556 5.256 15.756 14.765 26.756 22.12 22.344 14.937 29.503 19.344 37.156 28.492 3.348 4.002 5.847 8.284 7.619 13.16 1.055 2.902 2.121 6.977 2.173 8.375.034.378.04 1.098.04 1.098-6.706.728-20.181 1.797-20.181 1.797-13.093.937-27.602 1.368-41.079 1.18-17.868-.249-20.9-.735-21.033-1.133-.559-1.673 3.406-12.537 6.204-17.198.37-.57 1.05-1.754 1.05-1.754 5.06.156 10.82.257 17.002.254 5.663-.002 10.19-.096 10.19-.096 15.226-.27 28.596-1.3 29.71-1.484 1.28-.21 2.242-.522 2.614-.84.724-.618.397-1.087-3.118-5.019-.797-.901-2.439-2.748-2.439-2.748-.412.039-1.294.077-1.294.077.01.003-.03-.03-.03-.03-6.674.403-20.07.822-20.07.822-19.392.458-24.566-.036-24.55-.382.016-.353 2.304-2.413 6.021-5.553 3.513-2.966 13.592-10.612 14.641-11.11 1.898-1.961.322-3.65-2.473-5.255-4.55-3.25-8.012-5.675-8.3-5.675-.484 0-11.964 8.751-14.86 11.237-9.726 8.344-18.013 18.534-22.62 28.36a54.46 54.46 0 00-3.142 8.248c-.121.397-.215.733-.288 1.021a60.31 60.31 0 00-1.615 8.272 73.547 73.547 0 00-.348 3.436 577.728 577.728 0 0073.609.76c24.536-1.31 44.166-4.043 44.166-4.043a69.515 69.515 0 00-.34-3.596c-.383-3.182-.963-6.158-1.763-8.988-.117-.535-.325-1.217-.643-2.09a48.679 48.679 0 00-3.84-8.675c-4.384-8.342-10.281-15.152-19.06-22.778-2.231-1.939-22.135-16.289-28.649-20.72-12.075-8.213-21.456-16.354-26.48-22.105-2.663-3.048-5.12-6.85-7.076-10.824a54.565 54.565 0 01-1.49-3.295 45.838 45.838 0 01-1.966-5.794c-.624-2.38-1.611-8.462-1.497-9.192.032-.203 12.132.317 34.329-.37a576.686 576.686 0 0034.282-2.066c-.033.58-.152 1.7-.152 1.7-.351 3.903-1.82 9.948-3.217 13.82-.61 1.694-1.2 2.95-1.652 3.385l-.02.02c-.826.793-1.404 1.238-5.568 1.732-3.408.404-12.742 1.173-27.3 1.56-9.887.264-18.005.293-18.04.405-3.534-.103 1.775 6.15 3.423 7.998.342.37.977 1.065.977 1.065 6.94.012 20.767-.377 20.767-.377 8.514-.307 14.381-.646 17.662-.783.289.055.402.133.405.236.01.33-2.083 4.056-8.566 10.181-2.176 3.09-9.592 8.58-7.378 9.909.489.293 3.367 2.148 6.013 3.839a848.72 848.72 0 005.002 3.158c2.284-2.053 6.723-6.223 6.723-6.223 8.7-8.17 12.081-12.291 16.022-18.713 3.096-5.478 5.24-10.604 6.66-15.59.32-1.126.605-2.245.855-3.362 1.498-6.684 1.791-13.294 1.4-20.482-32.222 3.656-64.442 4.654-96.659 2.996zm7-127.45c-.014 6.218-.16 12.772.876 18.345 2.01 10.617 6.08 20.035 12.787 28.953 3.853 5.123 13.453 14.588 22.627 21.888 18.514 14.731 24.79 19.814 30.89 28.847 2.746 4.067 4.778 8.407 6.198 13.321.847 2.929 1.688 7.022 1.718 8.423.025.379.024 1.098.024 1.098-5.511.552-16.585 1.384-16.585 1.384-10.632.737-22.812 1.132-33.762 1.069-14.688-.085-17.183-.417-17.297-.812-.485-1.673 2.634-12.595 4.897-17.313.298-.575.847-1.77.847-1.77 7.515.125 22.495-.091 22.495-.091 12.594-.29 23.652-1.1 24.574-1.266 1.06-.19 1.856-.484 2.165-.795.602-.605.338-1.083-2.56-5.067-.657-.912-2.013-2.782-2.013-2.782-.342.033-1.073.06-1.073.06.008.002-.025-.032-.025-.032-5.536.313-16.65.668-16.65.668-16.087.42-20.381.092-20.371-.255.01-.352 1.887-2.443 4.953-5.613 2.962-3.063 11.175-10.627 12.129-11.17 1.575-1.96.257-3.65-2.087-5.25-3.816-3.24-6.734-5.64-6.974-5.639-.406.003-9.93 8.864-12.32 11.392-8.032 8.5-14.735 18.873-18.38 28.84a62.216 62.216 0 00-2.45 8.338 72.145 72.145 0 00-1.4 9.35 89.173 89.173 0 00-.223 3.445 583.729 583.729 0 0060.407 0c20.131-1.04 36.233-2.995 36.233-2.995a84.611 84.611 0 00-.23-3.604c-.273-3.192-.71-6.186-1.332-9.04-.089-.54-.252-1.228-.502-2.11a55.144 55.144 0 00-3.06-8.796c-3.516-8.46-8.346-15.474-15.598-23.277-2.355-2.535-17.857-16.17-23.904-21.102-10.145-8.275-18.128-16.345-22.424-22.043-4.03-5.345-7.544-13.012-9.139-19.773-.558-2.366-1.475-8.437-1.387-9.165.025-.204 10.362.004 29.322-.604 5.447-.166 11.65-.435 18.307-.835 6.099-.367 10.975-.753 10.975-.753a57.632 57.632 0 01-.143 1.695c-.473 5.593-2.973 15.667-4.259 17.085-.716.789-1.18 1.215-4.706 1.638-3.014.362-10.669.934-23.206 1.309-8.388.25-15.276.366-15.304.479-2.993-.07 1.555 6.131 2.963 7.968.292.367.835 1.058.835 1.058 5.87-.036 17.565-.393 17.565-.393 7.201-.26 12.164-.51 14.938-.593.244.058.34.139.342.241.007.331-1.785 4.01-7.258 10.06-1.837 3.066-8.074 8.499-6.212 9.84.44.317 2.803 2.149 5.05 3.887 1.406 1.09 4.19 3.214 4.19 3.214 1.917-2.022 5.66-6.12 5.66-6.12 7.376-8.06 10.194-11.984 13.603-18.35 6.832-13.846 8.446-25.466 7.973-39.135a666.194 666.194 0 01-82.71 2.648zm4.143-127.678c.075 6.224.038 12.767 1.037 18.326 1.933 10.581 5.66 19.907 11.654 28.74 3.405 5.018 11.997 14.486 19.987 21.745 16.06 14.593 21.698 20.197 26.804 29.142 2.349 4.117 4.07 8.5 5.255 13.443.707 2.948 1.397 7.054 1.412 8.457.019.38.013 1.098.013 1.098-4.724.42-14.214 1.067-14.214 1.067-8.964.579-19.698.933-28.935.94-12.59.01-14.73-.218-14.833-.61-.438-1.675 2.107-12.626 4.01-17.383.25-.58.711-1.782.711-1.782 6.485.026 19.411-.236 19.411-.236 10.867-.285 20.409-.922 21.205-1.073.914-.174 1.602-.455 1.87-.76.522-.595.3-1.08-2.193-5.104-.565-.922-1.733-2.81-1.733-2.81-.296.029-.928.045-.928.045.007.003-.022-.031-.022-.031-4.791.24-14.411.531-14.411.531-13.925.37-17.644.155-17.638-.192.006-.352 1.61-2.46 4.248-5.648 2.59-3.133 9.595-10.616 10.48-11.195 1.364-1.956.213-3.647-1.84-5.247-3.343-3.238-5.91-5.624-6.12-5.621-.354.005-8.598 8.929-10.653 11.484-6.916 8.602-12.559 19.09-15.548 29.152a69.843 69.843 0 00-1.975 8.394 30.68 30.68 0 00-.171 1.034 83.331 83.331 0 00-.877 8.348c-.065 1.175-.11 2.323-.135 3.45 15.456.475 32.797.457 51.685-.444 17.222-.822 30.996-2.204 30.996-2.204a98.739 98.739 0 00-.154-3.608c-.196-3.198-.535-6.203-1.036-9.075-.07-.541-.202-1.234-.407-2.125a61.81 61.81 0 00-2.536-8.881c-2.936-8.547-7.056-15.716-13.309-23.653-2.331-2.96-15.166-16.113-20.823-21.406-8.9-8.328-15.997-16.356-19.835-22.019-3.598-5.307-6.792-12.944-8.278-19.675-.52-2.355-1.401-8.418-1.33-9.143.02-.204 9.237-.195 26.145-.717 8.719-.255 26.113-1.212 26.113-1.212a64.45 64.45 0 01-.138 1.692c-.455 5.569-2.738 15.597-3.878 16.982-1.289 1.563-1.602 1.933-24.738 2.645-7.432.229-13.533.395-13.558.508-2.647-.05 1.422 6.116 2.68 7.945.26.365.744 1.053.744 1.053 5.185-.06 15.515-.376 15.515-.376 6.587-.225 10.518-.39 13.194-.437.215.062.3.144.3.246.006.331-1.594 3.97-6.418 9.958-1.62 3.042-7.095 8.422-5.46 9.775.403.334 2.444 2.153 4.428 3.927 1.231 1.103 3.665 3.258 3.665 3.258 1.681-1.995 4.974-6.033 4.974-6.033 6.53-7.977 8.984-11.735 12.061-18.063 6.132-13.684 7.698-25.2 7.405-38.896a852.592 852.592 0 01-73.878 2.274zm2.224-127.722c.135 6.227.17 12.76 1.15 18.31 1.894 10.561 5.412 19.832 10.966 28.62 3.129 4.949 11.1 14.444 18.35 21.68 14.55 14.519 19.757 20.474 24.255 29.363a51.106 51.106 0 011.218 2.582c1.487 3.397 2.62 6.996 3.445 10.942.619 2.961 1.212 7.073 1.217 8.477.015.38.005 1.097.005 1.097-4.226.32-12.717.828-12.717.828-7.852.453-17.788.765-25.886.803-11.264.053-13.18-.106-13.276-.497-.413-1.679 1.756-12.633 3.429-17.412.22-.582.624-1.787.624-1.787 5.838-.03 17.472-.3 17.472-.3 9.781-.262 18.37-.766 19.087-.907.823-.161 1.443-.432 1.685-.733a.993.993 0 00.162-.267.867.867 0 00.03-.468c-.105-.632-.696-1.752-2.155-4.393-.508-.929-1.558-2.829-1.558-2.829-.267.025-.838.034-.838.034.006.003-.02-.032-.02-.032-4.324.183-13.006.416-13.006.416-12.568.313-15.926.166-15.923-.18.003-.353 1.435-2.47 3.8-5.662 2.351-3.172 8.604-10.58 9.442-11.184 1.23-1.949.183-3.642-1.688-5.245-3.05-3.241-5.398-5.62-5.589-5.617-.323.006-7.76 8.95-9.603 11.516-5.18 7.218-9.49 15.74-12.264 24.228l-.15.465a77.798 77.798 0 00-1.327 4.623 75.95 75.95 0 00-1.664 8.425c-.06.404-.106.746-.14 1.037a92.249 92.249 0 00-.67 8.363 116.006 116.006 0 00-.073 3.452c13.8.182 29.303.04 46.167-.665 15.383-.642 27.685-1.609 27.685-1.609-.014-1.186-.049-2.389-.104-3.61-.144-3.201-.42-6.213-.843-9.097a25.438 25.438 0 00-.346-2.133 67.394 67.394 0 00-2.203-8.94 81.763 81.763 0 00-.723-2.298c-2.527-7.63-6.03-14.31-11.15-21.613-2.267-3.234-13.538-16.098-18.905-21.628-8.128-8.376-14.675-16.387-18.232-22.033-3.33-5.286-6.33-12.91-7.753-19.624-.498-2.348-1.36-8.407-1.301-9.13.016-.204 8.537-.304 24.17-.74 8.061-.21 24.143-.92 24.143-.92a69.303 69.303 0 01-.134 1.688c-.442 5.551-2.587 15.546-3.637 16.906-1.19 1.543-1.478 1.78-22.76 2.406-6.836.2-12.448.387-12.47.5-2.432-.043 1.342 6.107 2.507 7.933.241.365.688 1.052.688 1.052 4.76-.067 14.238-.337 14.238-.337 5.93-.18 9.766-.3 12.107-.312.197.065.274.148.276.25.004.33-1.476 3.942-5.892 9.876-1.484 3.023-6.482 8.356-4.988 9.72.378.344 2.224 2.158 4.042 3.958 1.123 1.113 3.339 3.292 3.339 3.292a737.293 737.293 0 004.544-5.966c5.998-7.911 8.225-11.548 11.093-17.85 5.694-13.566 7.226-25.006 7.043-38.718a1193.653 1193.653 0 01-68.39 1.894zm.886-127.741c.18 6.23.267 12.754 1.243 18.303 1.885 10.549 5.291 19.789 10.59 28.554 2.962 4.902 10.572 14.442 17.372 21.67 13.634 14.49 18.57 20.701 22.697 29.555 1.947 4.178 3.353 8.613 4.298 13.587.564 2.971 1.097 7.087 1.097 8.492.012.38 0 1.096 0 1.096-3.918.25-11.787.65-11.787.65-7.106.357-16.659.625-23.993.667-10.44.06-12.218-.059-12.31-.45-.398-1.682 1.53-12.633 3.054-17.425.202-.582.57-1.79.57-1.79 5.436-.054 16.272-.308 16.272-.308 9.11-.231 17.109-.632 17.776-.764.768-.152 1.345-.415 1.571-.713.44-.58.26-1.072-1.822-5.148-.473-.934-1.45-2.844-1.45-2.844-.25.022-.783.025-.783.025.006.003-.019-.032-.019-.032-4.035.137-12.139.316-12.139.316-11.73.252-14.865.143-14.865-.203 0-.352 1.325-2.471 3.52-5.663 2.2-3.197 7.987-10.542 8.795-11.16 1.148-1.944.163-3.64-1.598-5.249-2.871-3.248-5.089-5.628-5.268-5.625-.304.005-7.24 8.951-8.95 11.523-5.77 8.68-10.307 19.247-12.596 29.4a80.477 80.477 0 00-1.462 8.442c-.052.404-.09.746-.12 1.038a98.89 98.89 0 00-.535 8.37 124.778 124.778 0 00-.031 3.452c12.763.02 27.137-.173 42.737-.719a1176.29 1176.29 0 0025.63-1.175c-.007-1.186-.03-2.389-.073-3.61-.114-3.203-.35-6.22-.725-9.111-.05-.543-.15-1.242-.309-2.14a71.732 71.732 0 00-1.996-8.982c-2.342-8.644-5.741-16-10.987-24.102-2.216-3.423-12.551-16.113-17.737-21.812-7.661-8.421-13.885-16.434-17.276-22.073-3.174-5.278-6.068-12.9-7.46-19.602-.487-2.344-1.346-8.401-1.295-9.122.015-.205 8.123-.363 22.998-.712 7.67-.165 22.974-.681 22.974-.681-.033.575-.132 1.685-.132 1.685-.435 5.537-2.499 15.506-3.493 16.847-1.131 1.526-1.405 1.674-21.575 2.202-6.478.17-11.797.36-11.817.472-2.302-.042 1.3 6.104 2.41 7.93.23.365.657 1.052.657 1.052 4.501-.063 13.468-.285 13.468-.285 5.564-.14 9.282-.22 11.452-.206.186.067.26.15.26.253.004.33-1.404 3.919-5.571 9.81-1.401 3.008-6.106 8.3-4.697 9.673.362.353 2.091 2.167 3.808 3.987 1.057 1.122 3.14 3.32 3.14 3.32 1.443-1.956 4.281-5.912 4.281-5.912 5.676-7.86 7.763-11.403 10.508-17.684 5.431-13.478 6.95-24.86 6.836-38.584-21.712.88-43.426 1.385-65.143 1.515zm.012-127.58c.082 2.497.15 5.041.265 7.546.031.679.066 1.355.105 2.027.177 3.043.45 6.002.93 8.73 1.881 10.547 5.228 19.776 10.383 28.54 2.87 4.878 10.278 14.46 16.822 21.694 13.115 14.499 17.89 20.876 21.806 29.716 1.86 4.198 3.195 8.648 4.086 13.632.533 2.979 1.032 7.097 1.028 8.503.01.379-.003 1.095-.003 1.095-3.736.195-11.24.51-11.24.51-6.602.28-16.055.5-22.875.531-9.955.045-11.65-.05-11.741-.44-.39-1.686 1.382-12.627 2.817-17.425.19-.582.535-1.789.535-1.789 5.202-.061 15.57-.284 15.57-.284 8.718-.192 16.373-.51 17.012-.636.734-.144 1.287-.4 1.503-.696.422-.575.252-1.07-1.742-5.163-.452-.938-1.389-2.856-1.389-2.856-.239.02-.75.017-.75.017.006.003-.017-.032-.017-.032-3.868.1-11.635.228-11.635.228-11.243.19-14.248.1-14.249-.246 0-.352 1.259-2.47 3.353-5.655 2.11-3.208 7.622-10.499 8.412-11.125 1.099-1.937.15-3.637-1.549-5.252-2.77-3.258-4.914-5.641-5.086-5.638-.292.004-6.932 8.932-8.564 11.504-5.508 8.68-9.785 19.252-11.9 29.422a83.251 83.251 0 00-1.335 8.45c-.046.405-.08.747-.106 1.04a103.123 103.123 0 00-.445 8.372 130.017 130.017 0 00-.002 3.454 1824.16 1824.16 0 0040.71-.678c13.564-.376 24.413-.838 24.413-.838 0-1.186-.018-2.389-.054-3.61a101.932 101.932 0 00-.653-9.122 28.71 28.71 0 00-.286-2.145 74.63 74.63 0 00-1.875-9.01c-2.21-8.675-5.45-16.088-10.475-24.244-2.186-3.546-11.99-16.141-17.072-21.956-7.398-8.463-13.439-16.486-16.738-22.13-3.087-5.279-5.922-12.903-7.299-19.602-.231-1.126-.55-3.112-.813-4.95-.103-.718-.197-1.412-.275-2.024-.136-1.083-.22-1.908-.205-2.146.014-.204 7.88-.37 22.317-.633 7.444-.121 22.295-.494 22.295-.494-.032.575-.13 1.683-.13 1.683-.019.25-.041.511-.067.78a62.04 62.04 0 01-.23 2.029c-.72 5.569-2.286 12.869-3.1 13.992-1.096 1.513-1.36 1.611-20.89 2.034-6.272.136-11.421.315-11.44.427-2.228-.047 1.279 6.103 2.359 7.931.223.366.637 1.053.637 1.053 4.354-.05 13.025-.222 13.025-.222 5.362-.105 8.996-.15 11.075-.118.18.07.25.153.252.255.003.33-1.36 3.902-5.382 9.755-1.351 2.995-5.885 8.25-4.525 9.631.354.359 2.017 2.176 3.676 4.011 1.02 1.13 3.029 3.344 3.029 3.344 1.388-1.942 4.126-5.868 4.126-5.868 5.486-7.815 7.49-11.297 10.161-17.559 4.006-10.19 5.834-19.184 6.443-28.93.042-.672.078-1.346.11-2.026.11-2.444.15-4.945.133-7.531-21.082.613-42.166.992-63.252 1.138zm-.465-127.745c.217 6.235.353 12.752 1.324 18.305 1.873 10.555 5.174 19.79 10.236 28.57 2.813 4.88 10.085 14.501 16.478 21.76 12.809 14.54 17.485 21.003 21.287 29.849 1.811 4.212 3.11 8.673 3.974 13.664.517 2.983 1 7.102.995 8.508.01.38-.003 1.095-.003 1.095-3.63.156-10.918.406-10.918.406a748.18 748.18 0 01-22.223.398c-9.67.01-11.318-.078-11.407-.468-.387-1.691 1.294-12.618 2.676-17.414.182-.581.514-1.787.514-1.787 5.064-.048 15.154-.224 15.154-.224 8.485-.147 15.935-.404 16.556-.524.715-.137 1.253-.39 1.464-.683.41-.571.245-1.067-1.698-5.174-.442-.94-1.355-2.865-1.355-2.865-.233.017-.73.012-.73.012.005.003-.018-.033-.018-.033-3.767.071-11.332.151-11.332.151-10.951.126-13.878.035-13.88-.31-.002-.353 1.219-2.465 3.252-5.64 2.052-3.205 7.4-10.452 8.177-11.08 1.068-1.928.14-3.633-1.521-5.256-2.71-3.27-4.807-5.662-4.976-5.66-.285.003-6.742 8.9-8.326 11.465-5.35 8.663-9.473 19.22-11.488 29.392a84.87 84.87 0 00-1.26 8.45c-.043.404-.075.746-.098 1.039a105.657 105.657 0 00-.392 8.372 136.06 136.06 0 00.015 3.454 2771.141 2771.141 0 0063.229-1.138c.002-1.186-.014-2.39-.046-3.611a104.664 104.664 0 00-.622-9.128 29.57 29.57 0 00-.275-2.147 76.562 76.562 0 00-1.813-9.03c-2.142-8.695-5.295-16.143-10.197-24.336-2.158-3.608-11.674-16.19-16.68-22.071-7.237-8.505-13.16-16.55-16.4-22.207-3.03-5.29-5.823-12.926-7.187-19.627-.477-2.345-1.332-8.404-1.288-9.124.013-.204 7.716-.344 21.853-.52 7.29-.077 21.832-.342 21.832-.342-.031.575-.126 1.682-.126 1.682-.413 5.522-2.374 15.45-3.314 16.769-1.072 1.504-1.331 1.582-20.437 1.894-6.137.1-11.174.256-11.193.368-2.179-.058 1.265 6.106 2.325 7.939.22.366.626 1.055.626 1.055 4.257-.028 12.737-.151 12.737-.151 5.237-.072 8.804-.09 10.83-.043.177.07.246.155.247.257.004.33-1.328 3.889-5.253 9.712-1.316 2.984-5.74 8.207-4.408 9.596.346.362 1.97 2.186 3.595 4.033.997 1.136 2.96 3.363 2.96 3.363 1.354-1.93 4.025-5.835 4.025-5.835 5.357-7.775 7.31-11.225 9.922-17.469 5.153-13.365 6.623-24.69 6.532-38.423-20.649.436-41.299.69-61.951.762zM209-1031.826c.22 6.236.36 12.753 1.32 18.313 1.852 10.566 5.105 19.82 10.086 28.626 2.77 4.895 9.919 14.553 16.202 21.846 12.585 14.607 17.182 21.107 20.918 29.972 1.78 4.223 3.056 8.692 3.908 13.687.51 2.987.985 7.108.982 8.513.01.38-.002 1.095-.002 1.095-3.556.129-10.696.327-10.696.327a760.44 760.44 0 01-21.77.266c-9.474-.04-11.088-.132-11.176-.522-.384-1.694 1.24-12.608 2.584-17.397.177-.58.5-1.784.5-1.784 4.964-.03 14.855-.144 14.855-.144 8.317-.098 15.62-.304 16.23-.42.7-.134 1.227-.381 1.433-.673.401-.568.24-1.066-1.671-5.184a910.926 910.926 0 00-1.332-2.873c-.228.018-.716.01-.716.01.005 0-.017-.033-.017-.033-3.694.05-11.111.08-11.111.08-10.738.06-13.608-.042-13.61-.388-.003-.352 1.19-2.457 3.178-5.62 2.008-3.195 7.239-10.404 8.001-11.028 1.045-1.922.132-3.631-1.5-5.263-2.663-3.285-4.725-5.688-4.89-5.687-.28.001-6.599 8.86-8.148 11.415-5.232 8.633-9.252 19.168-11.203 29.332a86.068 86.068 0 00-1.214 8.444 107.533 107.533 0 00-.455 9.41c-.007 1.177.002 2.326.024 3.453 11.498-.032 24.644-.137 38.712-.343 12.9-.189 23.217-.419 23.217-.419 0-1.185-.014-2.388-.047-3.61a106.78 106.78 0 00-.613-9.132 30.164 30.164 0 00-.27-2.15 78.153 78.153 0 00-1.784-9.043c-2.105-8.708-5.204-16.18-10.021-24.403-2.129-3.633-11.464-16.247-16.393-22.167-7.115-8.546-12.936-16.62-16.125-22.295-2.982-5.308-5.733-12.957-7.08-19.666-.472-2.347-1.319-8.41-1.276-9.13.012-.203 7.57-.292 21.438-.382 7.151-.033 21.417-.213 21.417-.213-.03.575-.12 1.68-.12 1.68-.395 5.52-2.303 15.43-3.223 16.745-1.05 1.497-1.304 1.574-20.05 1.77-6.022.062-10.964.187-10.982.3-2.139-.073 1.25 6.111 2.292 7.95.216.366.616 1.058.616 1.058 4.177-.003 12.498-.07 12.498-.07 5.138-.044 8.639-.037 10.627.022.173.071.241.156.242.258.004.33-1.297 3.88-5.139 9.676-1.288 2.974-5.62 8.168-4.312 9.565.341.364 1.937 2.197 3.534 4.053.98 1.142 2.909 3.38 2.909 3.38 1.326-1.921 3.94-5.807 3.94-5.807 5.246-7.738 7.157-11.174 9.711-17.4 5.036-13.33 6.46-24.646 6.344-38.378-20.255.323-40.512.448-60.772.378zm-.707-127.747c.21 6.238.344 12.758 1.28 18.325 1.805 10.583 4.985 19.867 9.863 28.71 2.718 4.928 9.708 14.614 15.88 21.954 12.355 14.693 16.862 21.183 20.548 30.08 1.753 4.231 3.015 8.705 3.86 13.703.505 2.989.98 7.111.979 8.516.01.38 0 1.095 0 1.095-3.488.108-10.491.267-10.491.267-6.017.143-15.133.2-21.354.132-9.293-.101-10.876-.204-10.963-.595-.379-1.697 1.202-12.596 2.515-17.375.174-.58.49-1.78.49-1.78 4.866.01 14.564-.045 14.564-.045 8.154-.046 15.314-.211 15.911-.324.686-.13 1.203-.374 1.405-.664.392-.566.232-1.064-1.648-5.19-.427-.946-1.31-2.88-1.31-2.88-.224.016-.703.01-.703.01.005 0-.016-.033-.016-.033-3.621.03-10.892.014-10.892.014-10.525-.01-13.338-.132-13.341-.477-.003-.352 1.164-2.448 3.109-5.597 1.962-3.177 7.082-10.353 7.826-10.97 1.02-1.914.123-3.628-1.477-5.27-2.612-3.3-4.634-5.717-4.796-5.717-.274 0-6.454 8.809-7.969 11.353-5.118 8.591-9.052 19.093-10.958 29.242a87.3 87.3 0 00-1.183 8.435 109.363 109.363 0 00-.438 9.406c-.005 1.177.004 2.326.028 3.454 11.285.046 24.169.026 37.975-.097 12.654-.113 22.774-.287 22.774-.287 0-1.186-.019-2.389-.053-3.611a108.82 108.82 0 00-.62-9.133 30.85 30.85 0 00-.27-2.151 79.792 79.792 0 00-1.768-9.05c-2.084-8.72-5.139-16.202-9.877-24.447-2.084-3.625-11.275-16.316-16.096-22.247-6.98-8.588-12.678-16.693-15.802-22.394-2.92-5.33-5.61-12.996-6.927-19.717-.461-2.352-1.288-8.417-1.246-9.139.011-.203 7.386-.214 20.919-.217 6.978.013 20.899-.106 20.899-.106-.027.574-.112 1.679-.112 1.679-.37 5.518-2.204 15.414-3.101 16.726-1.021 1.492-1.27 1.587-19.587 1.66-5.884.025-10.713.11-10.73.222-2.09-.088 1.226 6.12 2.247 7.964.211.369.603 1.062.603 1.062 4.084.028 12.218.014 12.218.014 5.03-.013 8.44.012 10.39.081.17.072.236.158.238.26.005.33-1.26 3.872-5.006 9.644-1.254 2.966-5.484 8.132-4.202 9.536.333.365 1.9 2.208 3.466 4.072.961 1.146 2.854 3.394 2.854 3.394 1.294-1.913 3.846-5.784 3.846-5.784 5.113-7.701 6.98-11.144 9.457-17.35 4.886-13.304 6.235-24.624 6.07-38.35a2093.62 2093.62 0 01-59.278-.01z"></path>
              <path d="M-128.64 656.667c-3.242 3.366-7.822 6.716-1.144 10.858 9.328 5.672 29.301 12.25 61.763 19.057 12.67 2.657 27.358 5.369 44.071 8.04 16.85 2.693 46.634 6.848 84.444 10.804 38.675 4.047 80.317 7.335 123.977 9.585 80.795 4.165 150.47 4.368 192.53 4.202 37.834-.149 86.275-.9 106.403-1.183 27.851-.393 48.089-.526 63.504-.087 8.978.255 18.273.823 18.883 1.205a.957.957 0 01.495.305 3933.153 3933.153 0 01-102.2 7.27c-34.121 1.981-61.459 3.086-61.459 3.086a3917.265 3917.265 0 01-165.58 3.514 3927.46 3927.46 0 01-168.093-3.582c-67.639-2.893-120.162-6.929-139.63-8.467-24.472-1.935-30.907-2.599-31.433-2.712-2.3-.493 4.96-.958 15.569-1.32 10.33-.353 24.858-.64 36.17-.603 3.043.027 8.634.019 8.634.019a3694.61 3694.61 0 00137.232 7.939c45.686 1.79 82.19 2.301 82.19 2.301a3648.974 3648.974 0 00162.38-.876c41.728-1.155 74.171-2.818 77-2.966 10.28-.538 18.02-1.036 20.962-1.29 6.812-.59 2.122-.404-25.696-.424-6.52-.007-19.909-.076-19.909-.076-3.304.146-10.376.428-10.376.428.076-.002-.252-.001-.252-.001a3539.68 3539.68 0 01-100.59 2.56c-33.573.378-60.457.166-60.457.166-73.652-.425-131.36-3.104-157.02-4.406-29.845-1.514-40.197-2.3-40.12-2.358.155-.119 18.712.323 48.66.629 18.077.184 39.2.373 66.157.268 14.981-.058 36.024-.417 51.005-.476 15.794-.49 1.809-1.272-19.613-2.36-36.037-2.07-63.235-4.296-65.5-4.394-1.917-.084-25.363-.21-51.673-.724-30.36-.593-51.446-1.343-67.263-1.852-78.981-2.544-146.738-5.829-185.788-6.168-10.64-.11-19.518-.01-26.684.328a87.471 87.471 0 00-2.48.13c-6.192.361-10.923.921-14.185 1.686-1.326.311-2.392.64-3.223.985 82.197 9.853 178.059 18.84 285.066 24.105a4017.563 4017.563 0 00314.456 3.169 4020.72 4020.72 0 00254.121-15.47c64.736-6 104.525-11.059 104.525-11.059-.864-.314-2.004-.605-3.415-.875-3.721-.707-9.006-1.183-16.08-1.429-1.054-.079-2.881-.124-5.64-.139-8.752-.145-19.565-.014-32.88.35-36.94.806-86.5 3.313-157.463 5.43-18.643.555-55.008 1.835-102.47 2.224-48.436.396-89.92-.287-126.583-1.375-69.455-2.06-125.84-6.52-166.77-10.861-15.25-1.618-28.238-3.21-38.605-4.615-36.123-4.9-64.897-11.306-77.206-16.246-4.187-1.68-10.188-5.678-9.17-5.976.29-.084 91.25 13.192 257.994 14.031 48.207.247 102.156-.834 160.998-4.215 53.628-3.082 96.502-7.354 96.502-7.354-.1.33-.702.996-.702.996-1.184 1.65-6.452 4.198-13.059 6.52-6.608 2.323-14.323 4.342-19.892 5.1-4.609.626-11.96 1.62-42.07 3.553-20.6 1.322-102.69 6.527-209.262 4.992-75.672-1.09-137.854-5.37-138.135-5.332-13.062-.86-10.639.016-2.198 1.457 8.668 1.48 20.727 3.037 27.594 3.88 2.6.313 7.434.886 7.434.886a2858.827 2858.827 0 00100.21 3.337c33.365.526 60.03.316 60.03.316a2944.164 2944.164 0 00136.246-3.894c2.241-.084 3.128-.093 3.168-.047.085.097-6.862 1.302-26.101 3.402-9.473 1.033-22.545 2.33-39.005 3.656-9.228.995-25.71 2.166-40.99 3.238-14.109.99-24.759 1.757-15.84 1.958 6.562.147 23.787.58 47.452.798 13.274.123 39.678.103 39.678.103 9.865-.806 20.965-1.779 32.735-2.904 10.783-1.03 19.291-1.921 19.291-1.921 31.255-3.23 55.244-6.367 71.71-8.77 17.06-2.49 30.987-4.901 44.432-7.557a864.85 864.85 0 005.001-1.004c58.211-12.434 66.353-20.792 55.662-27.714-240.774 33.102-481.584 31.84-722.43-3.784zm101.797-77.291c-.71 1.171-1.478 2.343-2.166 3.52-2.057 3.52-3.44 7.133-.162 10.949 8.412 9.55 31.888 20.51 74.66 31.211 12.056 3.017 33.741 7.66 61.185 12.281 28.064 4.726 58.696 8.864 90.711 12.034 32.234 3.192 61.218 5.227 85.076 6.618 18.699 1.09 35.836 1.872 50.295 2.469 38.447 1.586 63.814 2.33 86.993 3.454 20.933 1.014 36.702 2.268 48.569 4.172 6.987 1.12 14.37 2.857 14.96 3.594.289.192.474.587.474.587-22.964 2.22-48.799 4.39-76.986 6.232-25.698 1.68-46.28 2.592-46.28 2.592a2459.439 2459.439 0 01-124.617 2.656 2462.007 2462.007 0 01-126.398-3.75c-50.916-2.823-90.196-6.613-104.89-8.079-18.37-1.833-23.188-2.48-23.563-2.634-1.631-.671 4.136-1.896 12.427-3.139 8.11-1.216 19.264-2.542 27.933-3.129 2.32-.13 6.588-.459 6.588-.459a2329.315 2329.315 0 00102.325 7.332c34.08 1.688 61.325 2.226 61.325 2.226 46.828 1.083 87.826.598 121.244-.397 31.336-.932 55.252-2.324 57.528-2.468 7.684-.487 13.444-.978 15.633-1.282 4.73-.658 1.849-.684-19.43-2.01-4.902-.311-14.953-.995-14.953-.995-2.46.124-7.728.35-7.728.35a2.67 2.67 0 00-.189-.012 2238.677 2238.677 0 01-74.892 2.015c-24.986.254-44.987.007-44.987.007-54.845-.537-97.635-3.014-116.751-4.23-22.176-1.41-29.858-2.15-29.79-2.252.14-.206 14.073-.388 36.443-1.006 5.215-.144 11.003-.292 18.573-.518a2690.063 2690.063 0 0049.482-1.92c9.418-.45 16.51-.826 19.081-.898 11.457-1.003 1.65-2.23-14.363-3.715-26.501-2.866-46.4-5.551-48.067-5.638-1.41-.073-18.755.49-38.283.793-24.078.374-36.701.27-50.04.329l-12.139.05c35.23-.14-73.13.308-37.9.167-37.316.206-69.399.606-90.778 2.182-8.285.585-15.307 1.366-21.07 2.385-.834.136-1.487.259-2.002.37-5.013.985-8.964 2.165-11.835 3.555-1.168.566-2.14 1.14-2.93 1.725 61.803 9.14 133.922 17.545 214.498 22.634a2533.753 2533.753 0 00236.973 3.875 2550.037 2550.037 0 00191.782-13.108c48.892-5.194 78.955-9.62 78.955-9.62-.814-.612-1.837-1.21-3.065-1.796-3.235-1.537-7.616-2.828-13.3-3.894-.861-.229-2.324-.473-4.509-.754-6.95-1.048-15.443-1.825-25.728-2.406-22.166-1.506-46.916-2-81.92-2.503-11.299-.163-24.339-.34-37.498-.565l-.597-.01c-15.483-.25-40.513-.3-76.487-1.561-35.846-1.258-65.663-3.16-92.569-5.198-69.985-5.3-122.105-14.21-149.57-20.335-25.955-5.79-46.526-13.49-54.92-19.671-2.883-2.123-6.84-7.32-6.06-7.797.221-.136 65.839 10.35 186.45 10.87 34.864.156 73.917-.758 116.527-3.513 38.838-2.51 69.914-5.964 69.914-5.964-.054.464-.455 1.384-.455 1.384-.766 2.288-4.466 5.67-9.153 8.708-4.68 3.034-10.224 5.642-14.25 6.485-3.825.8-8.18 1.675-30.596 3.362-15.25 1.148-74.524 5.435-152.262 4.216-55.019-.863-100.182-4.303-100.392-4.235-9.597-.72-7.69.516-1.756 2.27 6.073 1.795 15.037 3.737 19.858 4.736 1.877.38 5.368 1.081 5.368 1.081a1836.391 1836.391 0 0073.026 2.759c24.323.435 43.772.262 43.772.262 46.102-.265 82.742-2.216 99.425-3.155 1.638-.045 2.287-.022 2.319.05.1.233-11.025 3.83-47.435 9.085-6.532 1.336-18.997 2.958-29.99 4.47-10.41 1.432-18.083 2.608-11.613 3.017 5.148.325 17.125 1.162 34.878 2.059 9.772.495 29.25 1.246 29.25 1.246 7.206-1.016 15.409-2.24 23.995-3.605 7.897-1.256 14.118-2.318 14.118-2.318 24.274-4.091 42.205-7.823 54.544-10.733 12.798-3.018 23.027-5.946 33.536-9.416 36.868-12.958 44.984-23.185 40.85-31.94-.563-1.191-1.348-2.376-2.324-3.564-174.421 26.56-348.39 25.815-521.905-2.232zm77.9-101.146c-2.065 5.487-4.897 11.23-1.899 16.784 4.188 7.55 13.654 15.273 29.623 23.037 6.501 3.161 14.115 6.342 22.894 9.493 2.638.946 6 2.065 9.964 3.3 23.14 7.201 58.278 15.823 97.887 22.17 41.776 6.695 79.849 10.655 101.804 12.999 26.272 2.804 40.256 4.354 57.365 6.943 15.053 2.279 26.554 4.83 35.177 8.09 5.098 1.926 10.534 4.76 10.998 5.831.22.286.372.85.372.85a1643.701 1643.701 0 01-55.638 5.054c-18.566 1.37-33.432 2.124-33.432 2.124a1607.077 1607.077 0 01-89.967 2.274 1604.827 1604.827 0 01-91.164-2.83c-36.792-2.195-64.91-5.153-75.576-6.326-13.228-1.455-16.69-2-16.948-2.186-1.127-.814 3.207-2.842 9.353-5.025 6.04-2.146 14.195-4.569 20.546-5.848 1.69-.305 4.806-.981 4.806-.981a1544.46 1544.46 0 0073.447 5.487c24.471 1.243 44.044 1.607 44.044 1.607 33.634.75 63.116.29 87.136-.555 22.661-.797 39.602-1.929 41.37-2.068 5.528-.435 9.667-.912 11.242-1.256 3.072-.67 1.535-.903-13.985-3.397-3.524-.573-10.742-1.782-10.742-1.782-1.767.105-5.549.284-5.549.284.041 0-.135-.02-.135-.02a1495.886 1495.886 0 01-53.754 1.691c-17.93.243-32.276.09-32.276.09-83.075-.648-105.157-4.57-105.047-4.847.111-.282 10.172-1.188 26.282-2.829 12.38-1.26 18.392-1.762 35.448-3.637 12.875-1.415 24.26-2.824 27.173-3.034 8.145-1.48 1.329-3-10.168-4.669-18.875-3.278-33.022-6.099-34.212-6.159-1.007-.05-13.442 1.214-27.459 2.395-14.017 1.18-29.677 2.23-35.954 2.729-41.728 3.315-80.159 7.084-102.17 12.129-6.108 1.367-11.337 2.905-15.675 4.657a23.03 23.03 0 00-1.51.63c-3.488 1.522-6.346 3.194-8.561 5.032-.19.158-.375.317-.556.477a20.073 20.073 0 00-2.374 2.472c44.525 7.197 96.515 13.8 154.66 17.757a1663.156 1663.156 0 00171.161 2.825 1685.223 1685.223 0 00138.746-10.622c35.401-4.18 57.18-7.729 57.18-7.729-.646-.894-1.443-1.782-2.388-2.668a23.767 23.767 0 00-.406-.37c-2.436-2.172-5.601-4.112-9.592-5.857-.642-.369-1.725-.803-3.335-1.336-5.126-1.904-11.36-3.548-18.847-5.026-21.82-4.756-47.019-7.239-86.187-10.904-8.617-.806-30.8-2.35-54.608-4.72-26.174-2.606-46.91-5.311-66.605-8.03a856.157 856.157 0 01-38.67-6.22c-19.392-3.589-35.817-7.38-48.791-10.846-7.4-1.976-13.698-3.852-18.764-5.524-18.34-6.055-32.909-14.274-38.745-21.079-2.032-2.368-4.777-8.189-4.188-8.816.16-.17 46.839 7.002 132.692 6.88 24.811-.029 52.624-.84 82.957-2.98 27.654-1.951 49.785-4.543 49.785-4.543-.045.54-.342 1.6-.342 1.6-.573 2.645-3.248 6.477-6.617 9.897-3.362 3.413-7.343 6.34-10.213 7.201-2.926.879-5.647 1.636-21.813 3.027-11.112.957-52.855 4.294-108.457 3.713-39.178-.409-71.326-2.687-71.477-2.597-6.868-.5-5.463.942-1.307 2.828 4.232 1.92 10.696 4.02 14.053 5.068l3.803 1.152c15.556.844 33.022 1.5 52.014 1.751 17.327.23 31.185.034 31.185.034 32.79-.356 59.024-1.893 70.856-2.605 1.167-.011 1.63.034 1.651.124.044.188-3.348 1.84-12.709 4.704-5.054 1.546-12.078 3.499-21.212 5.638-4.424 1.502-13.162 3.405-20.797 5.195-7.813 1.832-13.717 3.398-9 3.955 4.307.508 11.554 1.47 24.851 2.918 6.967.76 20.863 2.09 20.863 2.09 9.306-2.102 27.263-6.627 27.263-6.627 10.89-2.806 19.842-5.355 26.933-7.534 14.853-4.564 24.534-8.392 34.05-12.945.65-.31 1.303-.627 1.962-.95 29.767-15.649 33.4-27.732 27.722-39.595-124.224 19.615-248.056 19.81-371.497.586zm54.802-115.31c-1.38 5.904-3.307 12.142-1.074 17.848 4.365 10.857 16.19 21.649 37.909 32.083 13.418 6.446 43.628 17.096 77.048 24.853 14.928 3.465 28.517 6.266 39.903 8.518 40.911 8.093 52.72 9.625 73.272 15.552 10.655 3.073 18.81 6.444 24.874 10.525 3.593 2.418 7.41 5.913 7.726 7.175.151.34.252 1 .252 1a1169.036 1169.036 0 01-39.618 3.855 1163.607 1163.607 0 01-23.803 1.665 1133.104 1133.104 0 01-64.048 2.017c-24.201.08-46.056-.62-64.888-1.643-26.27-1.427-46.106-3.418-53.782-4.239-9.412-1.007-11.874-1.421-12.057-1.622-.793-.876 2.318-3.455 6.719-6.287 4.341-2.795 10.136-5.962 14.687-7.735 1.207-.43 3.432-1.35 3.432-1.35 15.64 1.425 33.2 2.684 52.302 3.517 17.426.76 31.366.924 31.366.924 46.875.73 88.096-2.17 91.524-2.497 3.94-.375 6.888-.815 8.015-1.169 2.195-.689 1.108-1.029-9.898-4.21-2.5-.73-7.619-2.249-7.619-2.249-1.259.087-3.953.223-3.953.223.03.002-.096-.025-.096-.025a1079.628 1079.628 0 01-38.299 1.418c-12.774.247-22.995.202-22.995.202-59.188-.09-74.918-2.766-74.839-3.085.081-.324 7.257-1.758 18.753-4.112 8.901-1.823 28.048-5.597 38.25-7.67 3.153-.64 5.466-1.093 6.452-1.222 5.79-1.756 1.004-3.398-7.224-5.09-13.452-3.37-23.547-6.115-24.397-6.15-.719-.03-9.601 1.696-19.607 3.487-10.005 1.79-21.177 3.613-25.654 4.446-1.196.222-2.386.446-3.569.671-28.384 5.403-54.093 11.779-69.267 18.704-4.356 1.951-8.091 4.049-11.194 6.33-.448.314-.8.584-1.08.818-2.712 2.134-4.898 4.423-6.548 6.887a25.078 25.078 0 00-1.721 2.98 1197.528 1197.528 0 00110.046 11.986 1184.313 1184.313 0 00121.828 1.296c39.33-1.604 72.97-4.936 98.79-8.132 25.21-3.121 40.72-5.736 40.72-5.736a23.315 23.315 0 00-1.66-3.188c-1.734-2.794-4.044-5.331-7.008-7.665-.45-.454-1.213-1.01-2.347-1.706-3.606-2.447-8.006-4.658-13.294-6.73-15.12-6.42-33.532-10.713-61.05-16.1a170.01 170.01 0 00-2.998-.552c-8.005-1.414-23.357-3.868-39.279-6.83-17.7-3.29-30.67-6.07-43.987-8.916-35.481-7.579-62.05-16.675-75.942-22.967-13.136-5.95-23.665-14.171-27.905-21.15-1.481-2.438-3.51-8.505-3.098-9.193.113-.188 33.692 4.387 95.424 3.826a910.118 910.118 0 0059.644-2.483c19.88-1.48 35.788-3.365 35.788-3.365-.042.57-.275 1.686-.275 1.686-.93 5.63-8.07 15.951-12.352 17.684-2.191.886-3.984 1.54-15.66 2.653-8.196.781-37.673 3.292-77.77 3.205-28.095-.062-51.15-1.405-51.258-1.303-4.939-.32-3.897 1.202-.925 3.096 3.015 1.922 7.7 4.03 10.082 5.06l2.726 1.147c11.133.498 23.662.856 37.256.928 12.41.066 22.336-.141 22.336-.141 23.418-.413 42.341-1.589 50.747-2.107.835.013 1.165.072 1.179.17.045.317-5.705 4.328-24.381 10.707-3.249 1.63-9.863 3.735-15.39 5.7-5.368 1.908-9.257 3.553-5.994 4.155 1.71.316 9.617 1.883 17.722 3.356 4.965.904 14.866 2.567 14.866 2.567 6.667-2.182 19.543-6.775 19.543-6.775 24.437-8.842 35.133-14.421 45.276-21.226 21.518-15.58 24.477-27.929 20.669-40.778-89.341 14.01-178.449 14.836-267.323 2.478zm37.248-121.937c-.883 6.084-2.156 12.533-.4 18.241 3.435 10.878 12.27 21.244 28.26 31.173 9.694 6.02 32.188 16.208 56.303 23.86 53.258 16.9 59.528 15.861 81.848 26.091 6.385 2.926 11.504 6.065 15.52 9.642a38.43 38.43 0 012.237 2.158c2.314 2.424 4.748 5.812 5.313 7.402.056.158.094.3.113.422.102.363.162 1.063.162 1.063a884.643 884.643 0 01-28.533 2.874c-9.521.804-17.144 1.282-17.144 1.282a849.87 849.87 0 01-46.137 1.75 847.981 847.981 0 01-46.752-.77c-40.367-1.794-47.187-3.41-47.454-3.819-.15-.228-.115-.589.073-1.052.81-1.995 4.555-6.01 8.562-9.548 2.222-1.961 4.57-3.812 6.621-5.098.866-.5 2.463-1.553 2.463-1.553a850.011 850.011 0 0037.812 2.078c12.597.412 22.671.44 22.671.44 33.88.22 63.66-2.015 66.139-2.293 2.847-.32 4.98-.719 5.798-1.065 1.592-.676.818-1.076-7.1-4.61-1.797-.81-5.483-2.484-5.483-2.484-.911.07-2.86.172-2.86.172.02.002-.07-.027-.07-.027-8.25.49-17.596.912-27.714 1.171-9.245.237-16.643.261-16.643.261-42.84.264-54.238-1.494-54.183-1.83.056-.342 5.233-2.082 13.546-4.83 3.014-.998 12.87-4.06 18.317-5.774 6.611-2.08 12.618-3.996 14.072-4.29 4.188-1.88.743-3.556-5.254-5.218-9.782-3.339-17.143-5.965-17.762-5.984-.523-.016-6.974 1.96-14.229 4.098-7.254 2.137-15.342 4.414-18.58 5.442-21.629 6.868-41.085 15.192-52.35 23.666a52.937 52.937 0 00-4.236 3.47 41.85 41.85 0 00-3.699 3.821c-.316.357-.564.661-.76.923a33.982 33.982 0 00-3.116 4.641 31.119 31.119 0 00-1.458 2.99 33.284 33.284 0 00-1.18 3.24 910.345 910.345 0 0079.25 7.527 903.359 903.359 0 0087.706.198 917.861 917.861 0 0071.097-6.077c18.14-2.261 29.301-4.124 29.301-4.124a31.902 31.902 0 00-2.388-6.287 31.849 31.849 0 00-3.568-5.525c-.312-.497-.846-1.116-1.644-1.9a38.565 38.565 0 00-1.965-1.973c-2.129-1.992-4.598-3.876-7.433-5.692-10.638-7.333-24.013-12.718-43.75-19.085-4.41-1.422-15.791-4.393-28.062-7.895-14.84-4.236-22.88-6.794-34.451-10.32-25.836-7.871-45.3-16.615-55.535-22.722-9.657-5.762-17.497-13.83-20.709-20.798-1.124-2.438-2.709-8.562-2.419-9.276.08-.197 24.821 2.646 70.263 1.902a729.562 729.562 0 0043.894-2.025c14.628-1.115 26.33-2.48 26.33-2.48-.04.58-.227 1.709-.227 1.709-.76 5.684-6.141 16.033-9.284 17.682-1.652.867-2.895 1.44-11.49 2.33-6.211.644-27.4 2.518-57 2.708-20.596.132-37.504-.6-37.582-.492-3.63-.2-2.837 1.34-.648 3.203 2.216 1.886 5.687 3.957 7.426 4.958.7.388 2.003 1.119 2.003 1.119 8.14.273 17.33.441 27.267.41a750.64 750.64 0 0016.344-.228c17.05-.414 31.056-1.307 37.12-1.676.61.028.85.096.86.197.03.326-4.217 4.272-17.884 10.658-2.358 1.632-7.239 3.775-11.255 5.769-3.925 1.948-6.756 3.644-4.383 4.274 1.246.33 7.002 1.974 12.894 3.566 3.61.977 10.8 2.82 10.8 2.82 4.866-2.17 14.278-6.67 14.278-6.67 18.031-8.702 25.595-13.79 33.248-20.512 15.928-15.14 18.395-27.383 15.856-40.658-65.773 9.962-131.438 11.049-196.993 3.26zm25.054-125.267c-.542 6.16-1.366 12.691.08 18.362a45.6 45.6 0 001.136 3.703 46.925 46.925 0 003.652 7.876c3.757 6.485 9.334 12.731 17.038 18.773 7.248 5.685 24.468 15.532 42.378 23.066 37.633 15.83 46.418 17.688 60.765 27.287 5.612 3.754 9.868 7.807 12.965 12.509 1.84 2.793 3.753 6.757 3.884 8.136.07.373.105 1.088.105 1.088a703.541 703.541 0 01-21.03 2.136c-7.02.608-12.639.982-12.639.982A674.007 674.007 0 01208 240.848c-29.778-1.008-34.816-2.084-35.02-2.49-.844-1.682 6.23-12.144 11.02-16.55.632-.538 1.8-1.664 1.8-1.664 8.366.52 17.8.946 28.016 1.163 9.333.198 16.796.153 16.796.153 25.096-.062 47.148-1.776 48.983-2.014 2.11-.274 3.691-.636 4.3-.972 1.183-.655.62-1.09-5.218-4.828a7492.04 7492.04 0 01-4.046-2.62c-.676.057-2.122.132-2.122.132.015.002-.051-.029-.051-.029a679.109 679.109 0 01-32.92 1.212c-31.8.42-40.269-.725-40.232-1.069.038-.349 3.857-2.262 10.01-5.228 5.325-2.566 22.88-10.342 24.047-10.673 3.11-1.937.55-3.623-3.94-5.258-7.315-3.3-12.84-5.834-13.301-5.843-.391-.008-5.197 2.104-10.589 4.438-4.938 2.137-11.825 5.082-13.785 6.016-16.043 7.642-30.24 16.955-38.392 26.145-2.239 2.483-4.138 5.077-5.69 7.81-.225.379-.401.701-.54.977a39.372 39.372 0 00-3.194 7.998 44.45 44.45 0 00-.794 3.359 729.175 729.175 0 00123.023 4.204c41.04-2.067 73.909-7.463 73.909-7.463a41.776 41.776 0 00-.745-3.533c-.8-3.117-1.914-6.004-3.383-8.723-.22-.519-.6-1.171-1.17-2.002-1.806-2.889-4.047-5.588-6.77-8.189-7.664-7.854-17.54-13.933-32.087-20.917-2.956-1.42-12.016-5.01-20.823-8.634-9.13-3.757-18.94-7.974-25.718-10.789-19.352-8.037-34.057-16.497-41.838-22.445a52.674 52.674 0 01-5.64-5.007c-2.417-2.47-4.568-5.137-6.342-7.83-1.689-2.567-3.026-5.146-3.92-7.583-.885-2.42-2.18-8.536-1.973-9.262.058-.2 18.848 1.527 53.336.744a619.664 619.664 0 0033.307-1.636c11.098-.843 19.974-1.838 19.974-1.838-.037.582-.191 1.71-.191 1.71-.518 4.597-3.328 12.132-5.69 15.763-.554.85-1.073 1.469-1.514 1.761-1.273.842-2.178 1.358-8.685 2.078-4.877.54-20.496 1.935-43.035 2.26-15.553.223-28.324-.128-28.382-.017-3.173-.145-1.844 1.941.39 4.113 1.642 1.596 3.7 3.17 4.803 3.989.53.38 1.52 1.094 1.52 1.094a630.68 630.68 0 0032.857-.145c12.722-.378 23.51-1.057 27.954-1.312.46.04.64.113.646.215.02.33-3.214 4.19-13.502 10.499-3.446 3.148-15.302 8.755-11.757 10.045.934.34 5.246 2.028 9.65 3.694 2.699 1.024 8.066 2.98 8.066 2.98 3.65-2.13 10.726-6.509 10.726-6.509 13.665-8.503 19.217-13.186 25.146-19.792 2.826-3.414 5.103-6.686 6.913-9.846 1.577-2.756 2.806-5.438 3.736-8.077 2.624-7.438 2.908-14.593 1.933-22.318-49.945 7.131-99.845 8.272-149.701 3.421zM184.94-10.89c-.302 6.194-.814 12.754.426 18.384 2.419 10.734 7.93 20.477 17.486 29.723 5.623 5.442 19.23 15.073 32.994 22.504 28.307 15.285 36.45 18.656 46.632 27.979 4.26 3.9 7.467 8.088 9.774 12.896 1.372 2.86 2.781 6.892 2.865 8.284.05.377.067 1.095.067 1.095-4.738.543-10.175 1.1-15.996 1.605-5.338.464-9.613.758-9.613.758a558.828 558.828 0 01-52.118 1.246c-22.664-.538-26.505-1.263-26.666-1.664-.673-1.677 4.555-12.398 8.159-16.96.475-.558 1.352-1.72 1.352-1.72 6.393.3 13.627.528 21.433.608 7.14.074 12.847-.005 12.847-.005 19.194-.203 36.054-1.532 37.458-1.74 1.614-.238 2.824-.572 3.291-.897.91-.635.487-1.09-3.962-4.942l-3.086-2.694c-.518.047-1.627.101-1.627.101.012.002-.039-.03-.039-.03a584.678 584.678 0 01-25.232 1.008c-24.376.465-30.875-.292-30.85-.638.025-.351 2.93-2.355 7.628-5.43 4.287-2.806 17.284-10.53 18.423-10.958 2.383-1.955.415-3.643-3.059-5.259-5.657-3.268-9.944-5.737-10.301-5.74-.302-.003-3.998 2.177-8.133 4.614-3.911 2.306-8.935 5.263-10.553 6.328-12.27 8.07-22.945 17.924-28.995 27.504a47.852 47.852 0 00-4.178 8.084c-.164.39-.29.721-.39 1.004a48.825 48.825 0 00-2.261 8.176 57.986 57.986 0 00-.532 3.41 623.106 623.106 0 0093.516 2.077c31.181-1.65 56.138-5.497 56.138-5.497a54.696 54.696 0 00-.505-3.575c-.553-3.16-1.35-6.103-2.421-8.89-.158-.53-.437-1.2-.857-2.057-1.325-2.97-2.988-5.768-5.025-8.48-5.706-8.147-13.213-14.651-24.307-22.011-2.341-1.553-9.112-5.27-15.972-9.093-7.024-3.914-14.601-8.23-19.85-11.08-14.987-8.137-26.489-16.41-32.61-22.244-5.756-5.485-10.585-13.284-12.661-20.136-.727-2.398-1.834-8.5-1.682-9.23.042-.202 14.812.789 41.912.036a568.36 568.36 0 0026.169-1.312c8.718-.637 15.69-1.362 15.69-1.362-.035.582-.168 1.707-.168 1.707-.56 5.65-3.943 15.853-5.802 17.363-1.011.821-1.7 1.297-6.794 1.89-3.979.462-15.837 1.502-33.611 1.881-12.149.259-22.125.143-22.17.255-4.351-.16 2.116 6.181 4.125 8.049a400.5 400.5 0 011.193 1.077c4.76.055 10.192.049 16.005-.055 5.33-.095 9.591-.252 9.591-.252 9.683-.327 18.54-.855 21.774-1.02.357.05.497.125.501.228.014.33-2.534 4.119-10.538 10.335-2.684 3.12-11.877 8.675-9.13 9.986.723.345 4.063 2.063 7.467 3.777 2.086 1.053 6.23 3.083 6.23 3.083 2.837-2.094 8.324-6.356 8.324-6.356 10.689-8.32 14.927-12.694 19.663-19.196 9.626-14.34 11.496-26.24 10.373-39.816-39.286 5.09-78.557 6.185-117.813 3.284zm10.958-127.275c-.135 6.209-.433 12.77.68 18.367a63.5 63.5 0 001.305 5.29c2.506 8.566 6.816 16.446 13.34 23.973 4.556 5.256 15.756 14.765 26.756 22.12 22.344 14.937 29.503 19.344 37.156 28.492 3.348 4.002 5.847 8.284 7.619 13.16 1.055 2.902 2.121 6.977 2.173 8.375.034.378.04 1.098.04 1.098-6.706.728-20.181 1.797-20.181 1.797-13.093.937-27.602 1.368-41.079 1.18-17.868-.249-20.9-.735-21.033-1.133-.559-1.673 3.406-12.537 6.204-17.198.37-.57 1.05-1.754 1.05-1.754 5.06.156 10.82.257 17.002.254 5.663-.002 10.19-.096 10.19-.096 15.226-.27 28.596-1.3 29.71-1.484 1.28-.21 2.242-.522 2.614-.84.724-.618.397-1.087-3.118-5.019-.797-.901-2.439-2.748-2.439-2.748-.412.039-1.294.077-1.294.077.01.003-.03-.03-.03-.03-6.674.403-20.07.822-20.07.822-19.392.458-24.566-.036-24.55-.382.016-.353 2.304-2.413 6.021-5.553 3.513-2.966 13.592-10.612 14.641-11.11 1.898-1.961.322-3.65-2.473-5.255-4.55-3.25-8.012-5.675-8.3-5.675-.484 0-11.964 8.751-14.86 11.237-9.726 8.344-18.013 18.534-22.62 28.36a54.46 54.46 0 00-3.142 8.248c-.121.397-.215.733-.288 1.021a60.31 60.31 0 00-1.615 8.272 73.547 73.547 0 00-.348 3.436 577.728 577.728 0 0073.609.76c24.536-1.31 44.166-4.043 44.166-4.043a69.515 69.515 0 00-.34-3.596c-.383-3.182-.963-6.158-1.763-8.988-.117-.535-.325-1.217-.643-2.09a48.679 48.679 0 00-3.84-8.675c-4.384-8.342-10.281-15.152-19.06-22.778-2.231-1.939-22.135-16.289-28.649-20.72-12.075-8.213-21.456-16.354-26.48-22.105-2.663-3.048-5.12-6.85-7.076-10.824a54.565 54.565 0 01-1.49-3.295 45.838 45.838 0 01-1.966-5.794c-.624-2.38-1.611-8.462-1.497-9.192.032-.203 12.132.317 34.329-.37a576.686 576.686 0 0034.282-2.066c-.033.58-.152 1.7-.152 1.7-.351 3.903-1.82 9.948-3.217 13.82-.61 1.694-1.2 2.95-1.652 3.385l-.02.02c-.826.793-1.404 1.238-5.568 1.732-3.408.404-12.742 1.173-27.3 1.56-9.887.264-18.005.293-18.04.405-3.534-.103 1.775 6.15 3.423 7.998.342.37.977 1.065.977 1.065 6.94.012 20.767-.377 20.767-.377 8.514-.307 14.381-.646 17.662-.783.289.055.402.133.405.236.01.33-2.083 4.056-8.566 10.181-2.176 3.09-9.592 8.58-7.378 9.909.489.293 3.367 2.148 6.013 3.839a848.72 848.72 0 005.002 3.158c2.284-2.053 6.723-6.223 6.723-6.223 8.7-8.17 12.081-12.291 16.022-18.713 3.096-5.478 5.24-10.604 6.66-15.59.32-1.126.605-2.245.855-3.362 1.498-6.684 1.791-13.294 1.4-20.482-32.222 3.656-64.442 4.654-96.659 2.996zm7-127.45c-.014 6.218-.16 12.772.876 18.345 2.01 10.617 6.08 20.035 12.787 28.953 3.853 5.123 13.453 14.588 22.627 21.888 18.514 14.731 24.79 19.814 30.89 28.847 2.746 4.067 4.778 8.407 6.198 13.321.847 2.929 1.688 7.022 1.718 8.423.025.379.024 1.098.024 1.098-5.511.552-16.585 1.384-16.585 1.384-10.632.737-22.812 1.132-33.762 1.069-14.688-.085-17.183-.417-17.297-.812-.485-1.673 2.634-12.595 4.897-17.313.298-.575.847-1.77.847-1.77 7.515.125 22.495-.091 22.495-.091 12.594-.29 23.652-1.1 24.574-1.266 1.06-.19 1.856-.484 2.165-.795.602-.605.338-1.083-2.56-5.067-.657-.912-2.013-2.782-2.013-2.782-.342.033-1.073.06-1.073.06.008.002-.025-.032-.025-.032-5.536.313-16.65.668-16.65.668-16.087.42-20.381.092-20.371-.255.01-.352 1.887-2.443 4.953-5.613 2.962-3.063 11.175-10.627 12.129-11.17 1.575-1.96.257-3.65-2.087-5.25-3.816-3.24-6.734-5.64-6.974-5.639-.406.003-9.93 8.864-12.32 11.392-8.032 8.5-14.735 18.873-18.38 28.84a62.216 62.216 0 00-2.45 8.338 72.145 72.145 0 00-1.4 9.35 89.173 89.173 0 00-.223 3.445 583.729 583.729 0 0060.407 0c20.131-1.04 36.233-2.995 36.233-2.995a84.611 84.611 0 00-.23-3.604c-.273-3.192-.71-6.186-1.332-9.04-.089-.54-.252-1.228-.502-2.11a55.144 55.144 0 00-3.06-8.796c-3.516-8.46-8.346-15.474-15.598-23.277-2.355-2.535-17.857-16.17-23.904-21.102-10.145-8.275-18.128-16.345-22.424-22.043-4.03-5.345-7.544-13.012-9.139-19.773-.558-2.366-1.475-8.437-1.387-9.165.025-.204 10.362.004 29.322-.604 5.447-.166 11.65-.435 18.307-.835 6.099-.367 10.975-.753 10.975-.753a57.632 57.632 0 01-.143 1.695c-.473 5.593-2.973 15.667-4.259 17.085-.716.789-1.18 1.215-4.706 1.638-3.014.362-10.669.934-23.206 1.309-8.388.25-15.276.366-15.304.479-2.993-.07 1.555 6.131 2.963 7.968.292.367.835 1.058.835 1.058 5.87-.036 17.565-.393 17.565-.393 7.201-.26 12.164-.51 14.938-.593.244.058.34.139.342.241.007.331-1.785 4.01-7.258 10.06-1.837 3.066-8.074 8.499-6.212 9.84.44.317 2.803 2.149 5.05 3.887 1.406 1.09 4.19 3.214 4.19 3.214 1.917-2.022 5.66-6.12 5.66-6.12 7.376-8.06 10.194-11.984 13.603-18.35 6.832-13.846 8.446-25.466 7.973-39.135a666.194 666.194 0 01-82.71 2.648zm4.143-127.678c.075 6.224.038 12.767 1.037 18.326 1.933 10.581 5.66 19.907 11.654 28.74 3.405 5.018 11.997 14.486 19.987 21.745 16.06 14.593 21.698 20.197 26.804 29.142 2.349 4.117 4.07 8.5 5.255 13.443.707 2.948 1.397 7.054 1.412 8.457.019.38.013 1.098.013 1.098-4.724.42-14.214 1.067-14.214 1.067-8.964.579-19.698.933-28.935.94-12.59.01-14.73-.218-14.833-.61-.438-1.675 2.107-12.626 4.01-17.383.25-.58.711-1.782.711-1.782 6.485.026 19.411-.236 19.411-.236 10.867-.285 20.409-.922 21.205-1.073.914-.174 1.602-.455 1.87-.76.522-.595.3-1.08-2.193-5.104-.565-.922-1.733-2.81-1.733-2.81-.296.029-.928.045-.928.045.007.003-.022-.031-.022-.031-4.791.24-14.411.531-14.411.531-13.925.37-17.644.155-17.638-.192.006-.352 1.61-2.46 4.248-5.648 2.59-3.133 9.595-10.616 10.48-11.195 1.364-1.956.213-3.647-1.84-5.247-3.343-3.238-5.91-5.624-6.12-5.621-.354.005-8.598 8.929-10.653 11.484-6.916 8.602-12.559 19.09-15.548 29.152a69.843 69.843 0 00-1.975 8.394 30.68 30.68 0 00-.171 1.034 83.331 83.331 0 00-.877 8.348c-.065 1.175-.11 2.323-.135 3.45 15.456.475 32.797.457 51.685-.444 17.222-.822 30.996-2.204 30.996-2.204a98.739 98.739 0 00-.154-3.608c-.196-3.198-.535-6.203-1.036-9.075-.07-.541-.202-1.234-.407-2.125a61.81 61.81 0 00-2.536-8.881c-2.936-8.547-7.056-15.716-13.309-23.653-2.331-2.96-15.166-16.113-20.823-21.406-8.9-8.328-15.997-16.356-19.835-22.019-3.598-5.307-6.792-12.944-8.278-19.675-.52-2.355-1.401-8.418-1.33-9.143.02-.204 9.237-.195 26.145-.717 8.719-.255 26.113-1.212 26.113-1.212a64.45 64.45 0 01-.138 1.692c-.455 5.569-2.738 15.597-3.878 16.982-1.289 1.563-1.602 1.933-24.738 2.645-7.432.229-13.533.395-13.558.508-2.647-.05 1.422 6.116 2.68 7.945.26.365.744 1.053.744 1.053 5.185-.06 15.515-.376 15.515-.376 6.587-.225 10.518-.39 13.194-.437.215.062.3.144.3.246.006.331-1.594 3.97-6.418 9.958-1.62 3.042-7.095 8.422-5.46 9.775.403.334 2.444 2.153 4.428 3.927 1.231 1.103 3.665 3.258 3.665 3.258 1.681-1.995 4.974-6.033 4.974-6.033 6.53-7.977 8.984-11.735 12.061-18.063 6.132-13.684 7.698-25.2 7.405-38.896a852.592 852.592 0 01-73.878 2.274zm2.224-127.722c.135 6.227.17 12.76 1.15 18.31 1.894 10.561 5.412 19.832 10.966 28.62 3.129 4.949 11.1 14.444 18.35 21.68 14.55 14.519 19.757 20.474 24.255 29.363a51.106 51.106 0 011.218 2.582c1.487 3.397 2.62 6.996 3.445 10.942.619 2.961 1.212 7.073 1.217 8.477.015.38.005 1.097.005 1.097-4.226.32-12.717.828-12.717.828-7.852.453-17.788.765-25.886.803-11.264.053-13.18-.106-13.276-.497-.413-1.679 1.756-12.633 3.429-17.412.22-.582.624-1.787.624-1.787 5.838-.03 17.472-.3 17.472-.3 9.781-.262 18.37-.766 19.087-.907.823-.161 1.443-.432 1.685-.733a.993.993 0 00.162-.267.867.867 0 00.03-.468c-.105-.632-.696-1.752-2.155-4.393-.508-.929-1.558-2.829-1.558-2.829-.267.025-.838.034-.838.034.006.003-.02-.032-.02-.032-4.324.183-13.006.416-13.006.416-12.568.313-15.926.166-15.923-.18.003-.353 1.435-2.47 3.8-5.662 2.351-3.172 8.604-10.58 9.442-11.184 1.23-1.949.183-3.642-1.688-5.245-3.05-3.241-5.398-5.62-5.589-5.617-.323.006-7.76 8.95-9.603 11.516-5.18 7.218-9.49 15.74-12.264 24.228l-.15.465a77.798 77.798 0 00-1.327 4.623 75.95 75.95 0 00-1.664 8.425c-.06.404-.106.746-.14 1.037a92.249 92.249 0 00-.67 8.363 116.006 116.006 0 00-.073 3.452c13.8.182 29.303.04 46.167-.665 15.383-.642 27.685-1.609 27.685-1.609-.014-1.186-.049-2.389-.104-3.61-.144-3.201-.42-6.213-.843-9.097a25.438 25.438 0 00-.346-2.133 67.394 67.394 0 00-2.203-8.94 81.763 81.763 0 00-.723-2.298c-2.527-7.63-6.03-14.31-11.15-21.613-2.267-3.234-13.538-16.098-18.905-21.628-8.128-8.376-14.675-16.387-18.232-22.033-3.33-5.286-6.33-12.91-7.753-19.624-.498-2.348-1.36-8.407-1.301-9.13.016-.204 8.537-.304 24.17-.74 8.061-.21 24.143-.92 24.143-.92a69.303 69.303 0 01-.134 1.688c-.442 5.551-2.587 15.546-3.637 16.906-1.19 1.543-1.478 1.78-22.76 2.406-6.836.2-12.448.387-12.47.5-2.432-.043 1.342 6.107 2.507 7.933.241.365.688 1.052.688 1.052 4.76-.067 14.238-.337 14.238-.337 5.93-.18 9.766-.3 12.107-.312.197.065.274.148.276.25.004.33-1.476 3.942-5.892 9.876-1.484 3.023-6.482 8.356-4.988 9.72.378.344 2.224 2.158 4.042 3.958 1.123 1.113 3.339 3.292 3.339 3.292a737.293 737.293 0 004.544-5.966c5.998-7.911 8.225-11.548 11.093-17.85 5.694-13.566 7.226-25.006 7.043-38.718a1193.653 1193.653 0 01-68.39 1.894zm.886-127.741c.18 6.23.267 12.754 1.243 18.303 1.885 10.549 5.291 19.789 10.59 28.554 2.962 4.902 10.572 14.442 17.372 21.67 13.634 14.49 18.57 20.701 22.697 29.555 1.947 4.178 3.353 8.613 4.298 13.587.564 2.971 1.097 7.087 1.097 8.492.012.38 0 1.096 0 1.096-3.918.25-11.787.65-11.787.65-7.106.357-16.659.625-23.993.667-10.44.06-12.218-.059-12.31-.45-.398-1.682 1.53-12.633 3.054-17.425.202-.582.57-1.79.57-1.79 5.436-.054 16.272-.308 16.272-.308 9.11-.231 17.109-.632 17.776-.764.768-.152 1.345-.415 1.571-.713.44-.58.26-1.072-1.822-5.148-.473-.934-1.45-2.844-1.45-2.844-.25.022-.783.025-.783.025.006.003-.019-.032-.019-.032-4.035.137-12.139.316-12.139.316-11.73.252-14.865.143-14.865-.203 0-.352 1.325-2.471 3.52-5.663 2.2-3.197 7.987-10.542 8.795-11.16 1.148-1.944.163-3.64-1.598-5.249-2.871-3.248-5.089-5.628-5.268-5.625-.304.005-7.24 8.951-8.95 11.523-5.77 8.68-10.307 19.247-12.596 29.4a80.477 80.477 0 00-1.462 8.442c-.052.404-.09.746-.12 1.038a98.89 98.89 0 00-.535 8.37 124.778 124.778 0 00-.031 3.452c12.763.02 27.137-.173 42.737-.719a1176.29 1176.29 0 0025.63-1.175c-.007-1.186-.03-2.389-.073-3.61-.114-3.203-.35-6.22-.725-9.111-.05-.543-.15-1.242-.309-2.14a71.732 71.732 0 00-1.996-8.982c-2.342-8.644-5.741-16-10.987-24.102-2.216-3.423-12.551-16.113-17.737-21.812-7.661-8.421-13.885-16.434-17.276-22.073-3.174-5.278-6.068-12.9-7.46-19.602-.487-2.344-1.346-8.401-1.295-9.122.015-.205 8.123-.363 22.998-.712 7.67-.165 22.974-.681 22.974-.681-.033.575-.132 1.685-.132 1.685-.435 5.537-2.499 15.506-3.493 16.847-1.131 1.526-1.405 1.674-21.575 2.202-6.478.17-11.797.36-11.817.472-2.302-.042 1.3 6.104 2.41 7.93.23.365.657 1.052.657 1.052 4.501-.063 13.468-.285 13.468-.285 5.564-.14 9.282-.22 11.452-.206.186.067.26.15.26.253.004.33-1.404 3.919-5.571 9.81-1.401 3.008-6.106 8.3-4.697 9.673.362.353 2.091 2.167 3.808 3.987 1.057 1.122 3.14 3.32 3.14 3.32 1.443-1.956 4.281-5.912 4.281-5.912 5.676-7.86 7.763-11.403 10.508-17.684 5.431-13.478 6.95-24.86 6.836-38.584-21.712.88-43.426 1.385-65.143 1.515zm.012-127.58c.082 2.497.15 5.041.265 7.546.031.679.066 1.355.105 2.027.177 3.043.45 6.002.93 8.73 1.881 10.547 5.228 19.776 10.383 28.54 2.87 4.878 10.278 14.46 16.822 21.694 13.115 14.499 17.89 20.876 21.806 29.716 1.86 4.198 3.195 8.648 4.086 13.632.533 2.979 1.032 7.097 1.028 8.503.01.379-.003 1.095-.003 1.095-3.736.195-11.24.51-11.24.51-6.602.28-16.055.5-22.875.531-9.955.045-11.65-.05-11.741-.44-.39-1.686 1.382-12.627 2.817-17.425.19-.582.535-1.789.535-1.789 5.202-.061 15.57-.284 15.57-.284 8.718-.192 16.373-.51 17.012-.636.734-.144 1.287-.4 1.503-.696.422-.575.252-1.07-1.742-5.163-.452-.938-1.389-2.856-1.389-2.856-.239.02-.75.017-.75.017.006.003-.017-.032-.017-.032-3.868.1-11.635.228-11.635.228-11.243.19-14.248.1-14.249-.246 0-.352 1.259-2.47 3.353-5.655 2.11-3.208 7.622-10.499 8.412-11.125 1.099-1.937.15-3.637-1.549-5.252-2.77-3.258-4.914-5.641-5.086-5.638-.292.004-6.932 8.932-8.564 11.504-5.508 8.68-9.785 19.252-11.9 29.422a83.251 83.251 0 00-1.335 8.45c-.046.405-.08.747-.106 1.04a103.123 103.123 0 00-.445 8.372 130.017 130.017 0 00-.002 3.454 1824.16 1824.16 0 0040.71-.678c13.564-.376 24.413-.838 24.413-.838 0-1.186-.018-2.389-.054-3.61a101.932 101.932 0 00-.653-9.122 28.71 28.71 0 00-.286-2.145 74.63 74.63 0 00-1.875-9.01c-2.21-8.675-5.45-16.088-10.475-24.244-2.186-3.546-11.99-16.141-17.072-21.956-7.398-8.463-13.439-16.486-16.738-22.13-3.087-5.279-5.922-12.903-7.299-19.602-.231-1.126-.55-3.112-.813-4.95-.103-.718-.197-1.412-.275-2.024-.136-1.083-.22-1.908-.205-2.146.014-.204 7.88-.37 22.317-.633 7.444-.121 22.295-.494 22.295-.494-.032.575-.13 1.683-.13 1.683-.019.25-.041.511-.067.78a62.04 62.04 0 01-.23 2.029c-.72 5.569-2.286 12.869-3.1 13.992-1.096 1.513-1.36 1.611-20.89 2.034-6.272.136-11.421.315-11.44.427-2.228-.047 1.279 6.103 2.359 7.931.223.366.637 1.053.637 1.053 4.354-.05 13.025-.222 13.025-.222 5.362-.105 8.996-.15 11.075-.118.18.07.25.153.252.255.003.33-1.36 3.902-5.382 9.755-1.351 2.995-5.885 8.25-4.525 9.631.354.359 2.017 2.176 3.676 4.011 1.02 1.13 3.029 3.344 3.029 3.344 1.388-1.942 4.126-5.868 4.126-5.868 5.486-7.815 7.49-11.297 10.161-17.559 4.006-10.19 5.834-19.184 6.443-28.93.042-.672.078-1.346.11-2.026.11-2.444.15-4.945.133-7.531-21.082.613-42.166.992-63.252 1.138zm-.465-127.745c.217 6.235.353 12.752 1.324 18.305 1.873 10.555 5.174 19.79 10.236 28.57 2.813 4.88 10.085 14.501 16.478 21.76 12.809 14.54 17.485 21.003 21.287 29.849 1.811 4.212 3.11 8.673 3.974 13.664.517 2.983 1 7.102.995 8.508.01.38-.003 1.095-.003 1.095-3.63.156-10.918.406-10.918.406a748.18 748.18 0 01-22.223.398c-9.67.01-11.318-.078-11.407-.468-.387-1.691 1.294-12.618 2.676-17.414.182-.581.514-1.787.514-1.787 5.064-.048 15.154-.224 15.154-.224 8.485-.147 15.935-.404 16.556-.524.715-.137 1.253-.39 1.464-.683.41-.571.245-1.067-1.698-5.174-.442-.94-1.355-2.865-1.355-2.865-.233.017-.73.012-.73.012.005.003-.018-.033-.018-.033-3.767.071-11.332.151-11.332.151-10.951.126-13.878.035-13.88-.31-.002-.353 1.219-2.465 3.252-5.64 2.052-3.205 7.4-10.452 8.177-11.08 1.068-1.928.14-3.633-1.521-5.256-2.71-3.27-4.807-5.662-4.976-5.66-.285.003-6.742 8.9-8.326 11.465-5.35 8.663-9.473 19.22-11.488 29.392a84.87 84.87 0 00-1.26 8.45c-.043.404-.075.746-.098 1.039a105.657 105.657 0 00-.392 8.372 136.06 136.06 0 00.015 3.454 2771.141 2771.141 0 0063.229-1.138c.002-1.186-.014-2.39-.046-3.611a104.664 104.664 0 00-.622-9.128 29.57 29.57 0 00-.275-2.147 76.562 76.562 0 00-1.813-9.03c-2.142-8.695-5.295-16.143-10.197-24.336-2.158-3.608-11.674-16.19-16.68-22.071-7.237-8.505-13.16-16.55-16.4-22.207-3.03-5.29-5.823-12.926-7.187-19.627-.477-2.345-1.332-8.404-1.288-9.124.013-.204 7.716-.344 21.853-.52 7.29-.077 21.832-.342 21.832-.342-.031.575-.126 1.682-.126 1.682-.413 5.522-2.374 15.45-3.314 16.769-1.072 1.504-1.331 1.582-20.437 1.894-6.137.1-11.174.256-11.193.368-2.179-.058 1.265 6.106 2.325 7.939.22.366.626 1.055.626 1.055 4.257-.028 12.737-.151 12.737-.151 5.237-.072 8.804-.09 10.83-.043.177.07.246.155.247.257.004.33-1.328 3.889-5.253 9.712-1.316 2.984-5.74 8.207-4.408 9.596.346.362 1.97 2.186 3.595 4.033.997 1.136 2.96 3.363 2.96 3.363 1.354-1.93 4.025-5.835 4.025-5.835 5.357-7.775 7.31-11.225 9.922-17.469 5.153-13.365 6.623-24.69 6.532-38.423-20.649.436-41.299.69-61.951.762zM209-1031.826c.22 6.236.36 12.753 1.32 18.313 1.852 10.566 5.105 19.82 10.086 28.626 2.77 4.895 9.919 14.553 16.202 21.846 12.585 14.607 17.182 21.107 20.918 29.972 1.78 4.223 3.056 8.692 3.908 13.687.51 2.987.985 7.108.982 8.513.01.38-.002 1.095-.002 1.095-3.556.129-10.696.327-10.696.327a760.44 760.44 0 01-21.77.266c-9.474-.04-11.088-.132-11.176-.522-.384-1.694 1.24-12.608 2.584-17.397.177-.58.5-1.784.5-1.784 4.964-.03 14.855-.144 14.855-.144 8.317-.098 15.62-.304 16.23-.42.7-.134 1.227-.381 1.433-.673.401-.568.24-1.066-1.671-5.184a910.926 910.926 0 00-1.332-2.873c-.228.018-.716.01-.716.01.005 0-.017-.033-.017-.033-3.694.05-11.111.08-11.111.08-10.738.06-13.608-.042-13.61-.388-.003-.352 1.19-2.457 3.178-5.62 2.008-3.195 7.239-10.404 8.001-11.028 1.045-1.922.132-3.631-1.5-5.263-2.663-3.285-4.725-5.688-4.89-5.687-.28.001-6.599 8.86-8.148 11.415-5.232 8.633-9.252 19.168-11.203 29.332a86.068 86.068 0 00-1.214 8.444 107.533 107.533 0 00-.455 9.41c-.007 1.177.002 2.326.024 3.453 11.498-.032 24.644-.137 38.712-.343 12.9-.189 23.217-.419 23.217-.419 0-1.185-.014-2.388-.047-3.61a106.78 106.78 0 00-.613-9.132 30.164 30.164 0 00-.27-2.15 78.153 78.153 0 00-1.784-9.043c-2.105-8.708-5.204-16.18-10.021-24.403-2.129-3.633-11.464-16.247-16.393-22.167-7.115-8.546-12.936-16.62-16.125-22.295-2.982-5.308-5.733-12.957-7.08-19.666-.472-2.347-1.319-8.41-1.276-9.13.012-.203 7.57-.292 21.438-.382 7.151-.033 21.417-.213 21.417-.213-.03.575-.12 1.68-.12 1.68-.395 5.52-2.303 15.43-3.223 16.745-1.05 1.497-1.304 1.574-20.05 1.77-6.022.062-10.964.187-10.982.3-2.139-.073 1.25 6.111 2.292 7.95.216.366.616 1.058.616 1.058 4.177-.003 12.498-.07 12.498-.07 5.138-.044 8.639-.037 10.627.022.173.071.241.156.242.258.004.33-1.297 3.88-5.139 9.676-1.288 2.974-5.62 8.168-4.312 9.565.341.364 1.937 2.197 3.534 4.053.98 1.142 2.909 3.38 2.909 3.38 1.326-1.921 3.94-5.807 3.94-5.807 5.246-7.738 7.157-11.174 9.711-17.4 5.036-13.33 6.46-24.646 6.344-38.378-20.255.323-40.512.448-60.772.378zm-.707-127.747c.21 6.238.344 12.758 1.28 18.325 1.805 10.583 4.985 19.867 9.863 28.71 2.718 4.928 9.708 14.614 15.88 21.954 12.355 14.693 16.862 21.183 20.548 30.08 1.753 4.231 3.015 8.705 3.86 13.703.505 2.989.98 7.111.979 8.516.01.38 0 1.095 0 1.095-3.488.108-10.491.267-10.491.267-6.017.143-15.133.2-21.354.132-9.293-.101-10.876-.204-10.963-.595-.379-1.697 1.202-12.596 2.515-17.375.174-.58.49-1.78.49-1.78 4.866.01 14.564-.045 14.564-.045 8.154-.046 15.314-.211 15.911-.324.686-.13 1.203-.374 1.405-.664.392-.566.232-1.064-1.648-5.19-.427-.946-1.31-2.88-1.31-2.88-.224.016-.703.01-.703.01.005 0-.016-.033-.016-.033-3.621.03-10.892.014-10.892.014-10.525-.01-13.338-.132-13.341-.477-.003-.352 1.164-2.448 3.109-5.597 1.962-3.177 7.082-10.353 7.826-10.97 1.02-1.914.123-3.628-1.477-5.27-2.612-3.3-4.634-5.717-4.796-5.717-.274 0-6.454 8.809-7.969 11.353-5.118 8.591-9.052 19.093-10.958 29.242a87.3 87.3 0 00-1.183 8.435 109.363 109.363 0 00-.438 9.406c-.005 1.177.004 2.326.028 3.454 11.285.046 24.169.026 37.975-.097 12.654-.113 22.774-.287 22.774-.287 0-1.186-.019-2.389-.053-3.611a108.82 108.82 0 00-.62-9.133 30.85 30.85 0 00-.27-2.151 79.792 79.792 0 00-1.768-9.05c-2.084-8.72-5.139-16.202-9.877-24.447-2.084-3.625-11.275-16.316-16.096-22.247-6.98-8.588-12.678-16.693-15.802-22.394-2.92-5.33-5.61-12.996-6.927-19.717-.461-2.352-1.288-8.417-1.246-9.139.011-.203 7.386-.214 20.919-.217 6.978.013 20.899-.106 20.899-.106-.027.574-.112 1.679-.112 1.679-.37 5.518-2.204 15.414-3.101 16.726-1.021 1.492-1.27 1.587-19.587 1.66-5.884.025-10.713.11-10.73.222-2.09-.088 1.226 6.12 2.247 7.964.211.369.603 1.062.603 1.062 4.084.028 12.218.014 12.218.014 5.03-.013 8.44.012 10.39.081.17.072.236.158.238.26.005.33-1.26 3.872-5.006 9.644-1.254 2.966-5.484 8.132-4.202 9.536.333.365 1.9 2.208 3.466 4.072.961 1.146 2.854 3.394 2.854 3.394 1.294-1.913 3.846-5.784 3.846-5.784 5.113-7.701 6.98-11.144 9.457-17.35 4.886-13.304 6.235-24.624 6.07-38.35a2093.62 2093.62 0 01-59.278-.01z"></path>
            </g>
          </g>
        </g>
      </g>
    </svg>